<?xml version="1.0" encoding="utf-8"?>
<!-- Generator: Adobe Illustrator 17.0.2, SVG Export Plug-In . SVG Version: 6.00 Build 0)  -->
<!DOCTYPE svg PUBLIC "-//W3C//DTD SVG 1.1//EN" "http://www.w3.org/Graphics/SVG/1.1/DTD/svg11.dtd">
<svg version="1.1" id="Calque_1" xmlns="http://www.w3.org/2000/svg" xmlns:xlink="http://www.w3.org/1999/xlink" x="0px" y="0px"
	 width="130px" height="130px" viewBox="0 0 130 130" enable-background="new 0 0 130 130" xml:space="preserve">
<g>
	<path fill="#9CD6ED" d="M99.98,106.938c0,6.668-15.446,12.074-34.497,12.074c-19.055,0-34.501-5.405-34.501-12.074
		c0-6.669,15.446-12.075,34.501-12.075C84.534,94.863,99.98,100.27,99.98,106.938z"/>
	<path fill="#7DBAE6" d="M56.106,118.562v-8.607c0-1.111-0.201-2.041-0.537-2.826c2.225,1.728,2.376,6.072,2.376,6.072v5.523
		c2.003,0.157,4.071,0.251,6.188,0.28l-0.056-5.495c-0.307-7.512-6.745-8.431-6.745-8.431c-2.353-0.534-2.318,0.647-2.082,1.41
		c-2.308-3.937-8.495-3.428-8.495-3.428c-2.147,0.766-0.154,2.146-0.154,2.146c3.374,1.226,3.68,4.906,3.68,4.906v7.672
		c1.858,0.318,3.803,0.581,5.826,0.779L56.106,118.562z"/>
	<path fill="#7DBAE6" d="M83.241,103.057c0,0-6.188-0.509-8.496,3.429c0.237-0.763,0.272-1.945-2.081-1.41
		c0,0-6.438,0.92-6.745,8.431l-0.057,5.504c2.114-0.008,4.182-0.083,6.188-0.218V113.2c0,0,0.151-4.343,2.376-6.072
		c-0.335,0.785-0.537,1.714-0.537,2.826v8.696c2.018-0.177,3.966-0.416,5.825-0.711v-7.831c0,0,0.307-3.68,3.679-4.906
		c0-0.003,1.991-1.384-0.156-2.15L83.241,103.057z"/>
	<path d="M126.365,56.887l0.091-0.451c-10.12-2.024-20.506-2.044-26.79-1.783c1.032-3.719,1.343-7.998,1.343-12.77
		c0-6.844-2.571-12.319-6.746-16.485c0.73-2.354,1.704-7.583-0.973-14.278c0,0-4.723-1.499-15.404,5.65
		c-4.185-1.045-8.638-1.562-13.098-1.562c-4.907,0-9.865,0.625-14.49,1.893c-11.023-7.52-15.889-5.979-15.889-5.979
		c-3.176,7.943-1.212,13.824-0.616,15.285c-3.733,4.029-6.013,9.173-6.013,15.478c0,4.76,0.542,9.031,1.866,12.743
		c-6.337-0.231-16.344-0.142-26.103,1.81l0.09,0.451c9.818-1.964,19.888-2.032,26.186-1.794c0.292,0.768,0.617,1.514,0.981,2.234
		c-6.228,0.2-16.863,0.994-27.055,3.87l0.126,0.441c10.272-2.896,20.999-3.67,27.167-3.859c3.721,6.937,11.058,11.417,24.11,12.823
		c-1.852,1.245-3.742,3.361-4.508,6.942c-2.524,1.207-10.516,4.155-15.311-4.092c0,0-2.684-4.907-7.821-5.291
		c0,0-4.983-0.077-0.344,3.105c0,0,3.334,1.571,5.635,7.476c0,0,3.001,10.071,17.484,6.84v10.403c0,0-0.306,3.68-3.68,4.906
		c0,0-1.993,1.38,0.154,2.145c0,0,9.351,0.767,9.351-6.897V84.798c0,0-0.371-4.499,1.839-6.063v18.632c0,0-0.153,4.446-2.452,6.132
		c0,0-1.534,2.759,1.839,1.993c0,0,6.438-0.92,6.745-8.431l0.146-18.856h1.548l0.147,18.856c0.306,7.512,6.745,8.431,6.745,8.431
		c3.372,0.766,1.839-1.993,1.839-1.993c-2.299-1.687-2.452-6.132-2.452-6.132V78.896c2.209,1.72,1.839,5.902,1.839,5.902v11.344
		c0,7.665,9.351,6.897,9.351,6.897c2.146-0.765,0.154-2.145,0.154-2.145c-3.373-1.226-3.68-4.906-3.68-4.906v-14.87
		c0-5.799-2.441-8.869-4.83-10.49c13.919-1.38,20.599-5.875,23.677-12.858c6.097,0.168,17.069,0.91,27.564,3.871l0.125-0.441
		c-10.435-2.943-21.335-3.705-27.494-3.884c0.292-0.706,0.546-1.439,0.772-2.194c6.252-0.26,16.687-0.256,26.846,1.773
		L126.365,56.887z"/>
	<path fill="#F3CAB1" d="M87.395,41.561c2.998,2.716,4.752,5.996,4.752,9.53c0,16.5-12.3,16.947-27.471,16.947
		c-15.174,0-27.472-2.285-27.472-16.947c0-3.511,1.729-6.77,4.69-9.475c4.939-4.508,13.298-2.121,22.782-2.121
		c9.441-0.001,17.772-2.413,22.718,2.065L87.395,41.561z"/>
	<path fill="#FFFFFF" d="M55.538,51.931c0,4.545-2.559,8.228-5.716,8.228s-5.716-3.684-5.716-8.228c0-4.544,2.559-8.227,5.716-8.227
		C52.979,43.707,55.538,47.387,55.538,51.931z M86.207,51.931c0,4.545-2.559,8.228-5.716,8.228c-3.157,0-5.716-3.684-5.716-8.228
		c0-4.544,2.559-8.227,5.716-8.227C83.647,43.707,86.207,47.387,86.207,51.931z"/>
	<path fill="#AD5D51" d="M53.706,52.035c0,3.03-1.708,5.484-3.811,5.484s-3.811-2.455-3.811-5.484c0-3.031,1.707-5.487,3.811-5.487
		c2.101,0,3.81,2.455,3.81,5.485L53.706,52.035z M84.371,52.035c0,3.03-1.708,5.484-3.811,5.484c-2.102,0-3.811-2.455-3.811-5.484
		c0-3.031,1.707-5.487,3.811-5.487c2.102,0,3.81,2.455,3.81,5.485L84.371,52.035z"/>
	<circle fill="#AD5D51" cx="64.762" cy="59.238" r="1.429"/>
	<path fill="#AD5D51" d="M61.426,62.853c-0.084-0.24,0.042-0.502,0.28-0.586c0.239-0.084,0.502,0.042,0.586,0.28
		c0.368,1.039,1.353,1.736,2.452,1.736c1.099,0,2.084-0.697,2.452-1.736c0.084-0.239,0.347-0.364,0.586-0.28
		c0.24,0.085,0.364,0.347,0.28,0.586c-0.496,1.404-1.831,2.348-3.319,2.348c-1.487,0-2.819-0.939-3.316-2.345L61.426,62.853z"/>
	<path fill="#C3E1D7" d="M29.732,69.391c0,0.381-0.447,0.689-0.997,0.689c-0.55,0-0.997-0.308-0.997-0.689
		c0-0.382,0.447-0.691,0.997-0.691c0.55,0,0.997,0.309,0.997,0.692V69.391z M32.492,70.924c0,0.381-0.447,0.689-0.997,0.689
		c-0.55,0-0.997-0.308-0.997-0.689c0-0.382,0.447-0.691,0.997-0.691C32.045,70.233,32.492,70.542,32.492,70.924L32.492,70.924z
		 M34.179,72.918c0,0.381-0.447,0.689-0.997,0.689c-0.55,0-0.997-0.308-0.997-0.689c0-0.382,0.447-0.691,0.997-0.691
		C33.732,72.227,34.179,72.536,34.179,72.918L34.179,72.918z M35.712,75.217c0,0.381-0.447,0.689-0.997,0.689
		c-0.55,0-0.997-0.308-0.997-0.689c0-0.382,0.447-0.691,0.997-0.691C35.265,74.526,35.712,74.835,35.712,75.217L35.712,75.217z
		 M37.397,77.364c0,0.381-0.447,0.689-0.997,0.689c-0.55,0-0.997-0.308-0.997-0.689c0-0.382,0.447-0.691,0.997-0.691
		C36.95,76.673,37.397,76.982,37.397,77.364L37.397,77.364z M39.699,79.202c0,0.381-0.447,0.689-0.997,0.689
		c-0.55,0-0.997-0.308-0.997-0.689c0-0.382,0.447-0.691,0.997-0.691c0.55,0,0.997,0.309,0.997,0.692V79.202z M42.918,80.43
		c0,0.381-0.447,0.689-0.997,0.689c-0.55,0-0.997-0.308-0.997-0.689c0-0.382,0.447-0.691,0.997-0.691
		c0.55,0,0.997,0.309,0.997,0.692V80.43z M46.123,80.43c0,0.381-0.447,0.689-0.997,0.689c-0.55,0-0.997-0.308-0.997-0.689
		c0-0.382,0.447-0.691,0.997-0.691c0.55,0,0.997,0.309,0.997,0.692V80.43z M49.374,79.897c0,0.381-0.447,0.689-0.997,0.689
		c-0.55,0-0.997-0.308-0.997-0.689c0-0.382,0.447-0.691,0.997-0.691C48.927,79.206,49.374,79.515,49.374,79.897L49.374,79.897z"/>
	<path fill="#9CD6ED" d="M26.071,71.437l-0.996,3.469c0,0-0.26,1.254,0.922,1.476c1.234-0.024,1.132-1.178,1.047-1.553
		L26.071,71.437z"/>
</g>
</svg>
