<?xml version="1.0" encoding="utf-8"?>
<!-- Generator: Adobe Illustrator 17.0.2, SVG Export Plug-In . SVG Version: 6.00 Build 0)  -->
<!DOCTYPE svg PUBLIC "-//W3C//DTD SVG 1.1//EN" "http://www.w3.org/Graphics/SVG/1.1/DTD/svg11.dtd">
<svg version="1.1" id="Calque_1" xmlns="http://www.w3.org/2000/svg" xmlns:xlink="http://www.w3.org/1999/xlink" x="0px" y="0px"
	 width="130px" height="130px" viewBox="0 0 130 130" enable-background="new 0 0 130 130" xml:space="preserve">
<g id="igqT7P.tif">
	<g>
		<path fill="#E84A4B" d="M89.586,73.886c-1.024,0.841-1.682,1.535-2.474,1.995c-1.161,0.674-2.38,1.304-3.65,1.721
			c-1.039,0.342-2.165,0.171-2.852-0.87c-0.653-0.989-0.169-1.915,0.415-2.719c1.027-1.413,2.147-2.758,3.196-4.156
			c0.384-0.512,0.678-1.092,1.075-1.743c-1.315-0.383-2.2,0.105-2.76,0.795c-1.412,1.739-2.918,3.477-3.92,5.453
			c-1.44,2.838-2.455,5.89-3.677,8.84c-0.274,0.662-0.517,1.443-1.026,1.871c-0.461,0.389-1.355,0.632-1.885,0.446
			c-0.36-0.126-0.678-1.161-0.562-1.69c0.244-1.108,0.753-2.166,1.216-3.216c0.776-1.762,1.602-3.503,2.521-5.501
			c-4.046,3.078-5.48,3.286-7.131,1.309c-1.239,0.424-2.412,1.107-3.62,1.173c-1.834,0.1-1.571-1.563-1.653-2.871
			c-1.981,2.091-3.132,2.782-4.808,2.936c-2.083,0.191-3.488-1.12-2.898-3.084c0.889-2.964,2.079-5.842,3.232-8.72
			c0.353-0.881,1.203-1.269,2.129-0.825c1.019,0.488,0.695,1.296,0.325,2.075c-0.713,1.499-1.507,2.971-2.068,4.527
			c-0.29,0.803-0.487,2.343-0.144,2.541c1.072,0.619,2.103-0.275,2.671-1.128c1.241-1.864,2.283-3.861,3.381-5.819
			c0.331-0.59,0.477-1.31,0.895-1.814c0.26-0.314,0.915-0.522,1.313-0.43c0.329,0.076,0.713,0.64,0.761,1.026
			c0.063,0.515-0.109,1.092-0.297,1.599c-0.577,1.557-1.278,3.071-1.788,4.648c-0.231,0.712-0.126,1.532-0.173,2.303
			c0.846-0.298,1.727-0.528,2.522-0.926c0.311-0.156,0.48-0.671,0.632-1.055c2.127-5.388,4.231-10.785,6.362-16.171
			c0.513-1.297,1.455-1.857,2.311-1.382c1.136,0.63,0.717,1.568,0.372,2.46c-0.031,0.079-0.08,0.151-0.113,0.229
			c-1.941,4.729-3.89,9.455-5.811,14.193c-0.309,0.762-0.491,1.576-0.732,2.366c0.087,0.081,0.174,0.162,0.261,0.243
			c0.485-0.185,1.037-0.277,1.441-0.573c1.167-0.856,2.36-1.707,3.374-2.728c0.716-0.722,1.199-1.693,1.705-2.599
			c0.474-0.85,0.773-1.801,1.289-2.62c0.191-0.303,0.83-0.554,1.173-0.467c0.332,0.084,0.582,0.612,0.796,0.986
			c0.106,0.185,0.049,0.464,0.065,0.694c1.128-0.719,2.142-1.506,3.273-2.049c1.186-0.569,2.449-0.472,3.442,0.51
			c1.009,0.996,0.714,2.188,0.076,3.181c-1.032,1.608-2.234,3.106-3.363,4.652c-0.277,0.38-0.548,0.764-0.821,1.147
			c0.467,0.149,0.79,0.152,0.988-0.004c1.735-1.377,3.463-2.763,5.15-4.198c0.245-0.208,0.331-0.676,0.373-1.037
			c0.272-2.327,0.507-4.658,0.763-6.986c0.819-7.453,1.649-14.904,2.459-22.358c0.14-1.283,0.207-2.574,0.313-3.927
			c-9.514,2.639-19.054,2.823-28.601,2.821c-9.592-0.002-19.178-0.172-28.677-2.854c1.088,10.023,2.172,20.009,3.257,29.996
			c0.379-0.337,0.53-0.68,0.668-1.029c1.165-2.957,2.609-5.782,4.804-8.09c1.272-1.338,2.751-2.59,4.361-3.471
			c2.793-1.529,6.049-0.274,7.451,2.583c0.542,1.105,0.31,2.482-0.556,2.849c-1.196,0.507-1.514-0.556-2.023-1.243
			c-0.05-0.068-0.087-0.147-0.131-0.22c-1.2-1.969-2.477-2.258-4.303-0.875c-0.741,0.562-1.438,1.222-2.021,1.945
			c-2.577,3.197-4.398,6.792-5.32,10.801c-0.245,1.064-0.306,2.196-0.277,3.293c0.05,1.907,1.106,2.523,2.664,1.48
			c2.769-1.854,5.1-4.126,6.164-7.427c0.3-0.931,0.511-1.935,1.023-2.739c0.311-0.488,1.141-0.917,1.699-0.873
			c0.337,0.026,0.785,0.99,0.845,1.567c0.072,0.69-0.149,1.438-0.363,2.124c-1.332,4.266-2.69,8.524-4.058,12.778
			c-0.467,1.454-1.317,2.262-2.007,1.867c-1.103-0.632-0.739-1.683-0.497-2.621c0.393-1.527,0.839-3.04,1.331-4.805
			c-2.535,2.135-4.628,4.616-8.265,3.684c0,0.431-0.028,0.763,0.004,1.089c0.478,4.919,1.03,9.833,1.428,14.758
			c0.354,4.382,0.348,4.472,4.578,5.688c0.082,0.024,0.166,0.04,0.248,0.062c10.141,2.686,20.38,2.934,30.664,1.058
			c2.664-0.486,5.252-1.402,7.863-2.164c0.872-0.255,1.343-0.807,1.451-1.838c0.505-4.829,1.123-9.646,1.683-14.469
			C89.01,79.331,89.27,76.794,89.586,73.886z M44.277,100.21c1.032,1.774,1.997,3.33,2.85,4.946c0.365,0.692,0.65,1.496,0.71,2.269
			c0.41,5.269,0.742,10.544,1.117,15.815c0.3,4.226,0.676,4.732,4.667,5.698c6.639,1.607,13.349,1.646,20.056,0.556
			c1.953-0.317,3.868-0.987,5.728-1.687c0.591-0.223,1.17-1.005,1.356-1.647c0.279-0.961,0.223-2.024,0.28-3.045
			c0.287-5.194,0.52-10.391,0.882-15.579c0.074-1.056,0.516-2.129,0.981-3.103c0.683-1.43,1.539-2.777,2.37-4.246
			C71.559,104.163,58.045,104.153,44.277,100.21z"/>
		<path fill="#E84A4B" d="M94.173,4.026c-4.698,4.95-9.4,9.896-14.084,14.86c-0.309,0.327-0.59,0.755-0.7,1.184
			c-0.77,3.01-1.493,6.032-2.223,9.052c-0.047,0.194-0.024,0.405-0.039,0.708c2.162,0.213,4.286,0.318,6.373,0.653
			c2.935,0.47,5.855,1.06,8.754,1.719c0.61,0.139,1.102,0.797,1.648,1.215c-0.56,0.451-1.059,1.165-1.689,1.309
			c-2.939,0.671-5.894,1.352-8.881,1.723c-9.125,1.133-18.303,1.084-27.468,0.737c-5.571-0.211-11.151-0.603-16.598-1.971
			c-1.961-0.493-2.526-0.796-3.44-1.947c0.711-0.395,1.347-0.953,2.072-1.115c2.819-0.63,5.646-1.311,8.508-1.654
			c7.93-0.95,15.901-1.15,23.88-0.852c1.185,0.044,1.636-0.379,1.898-1.472c0.796-3.311,1.661-6.605,2.561-9.889
			c0.171-0.623,0.523-1.264,0.965-1.735c4.585-4.882,9.205-9.731,13.817-14.587c1.179-1.241,1.789-1.286,3.101-0.129
			c0.567,0.5,1.033,1.115,1.546,1.678C94.173,3.685,94.173,3.856,94.173,4.026z M73.205,35.919c1.014-0.217,2.017-0.392,2.99-0.671
			c0.221-0.063,0.338-0.486,0.504-0.743c-0.314-0.039-0.659-0.183-0.938-0.101c-1.712,0.504-3.399,0.577-5.107-0.032
			c-0.263-0.094-0.618,0.072-0.93,0.118c0.158,0.261,0.267,0.692,0.482,0.754C71.179,35.524,72.182,35.7,73.205,35.919z"/>
		<path fill="#E84A4B" d="M89.586,73.886c-0.316,2.907-0.576,5.445-0.871,7.978c-0.561,4.823-1.178,9.64-1.683,14.469
			c-0.108,1.031-0.578,1.583-1.451,1.838c-2.61,0.762-5.198,1.678-7.863,2.164c-10.284,1.876-20.523,1.629-30.664-1.058
			c-0.082-0.022-0.166-0.039-0.248-0.062c-4.23-1.215-4.224-1.306-4.578-5.688c-0.398-4.926-0.95-9.839-1.428-14.758
			c-0.032-0.326-0.004-0.658-0.004-1.089c3.637,0.932,5.73-1.549,8.265-3.684c-0.492,1.764-0.938,3.278-1.331,4.805
			c-0.242,0.938-0.606,1.989,0.497,2.621c0.69,0.395,1.539-0.413,2.007-1.867c1.368-4.255,2.726-8.513,4.058-12.778
			c0.214-0.686,0.435-1.435,0.363-2.124c-0.06-0.578-0.509-1.541-0.845-1.567c-0.558-0.044-1.389,0.385-1.699,0.873
			c-0.512,0.804-0.723,1.807-1.023,2.739c-1.063,3.301-3.395,5.573-6.164,7.427c-1.558,1.043-2.614,0.427-2.664-1.48
			c-0.029-1.096,0.032-2.228,0.277-3.293c0.922-4.009,2.743-7.603,5.32-10.801c0.583-0.723,1.28-1.384,2.021-1.945
			c1.826-1.383,3.103-1.094,4.303,0.875c0.044,0.073,0.081,0.151,0.131,0.22c0.509,0.687,0.827,1.75,2.023,1.243
			c0.865-0.367,1.098-1.744,0.556-2.849c-1.403-2.857-4.658-4.112-7.451-2.583c-1.61,0.881-3.088,2.134-4.361,3.471
			c-2.196,2.308-3.639,5.133-4.804,8.09c-0.137,0.349-0.288,0.692-0.668,1.029c-1.084-9.986-2.168-19.973-3.257-29.996
			c9.499,2.682,19.086,2.852,28.677,2.854c9.547,0.002,19.087-0.182,28.601-2.821c-0.106,1.352-0.173,2.643-0.313,3.927
			c-0.811,7.454-1.64,14.905-2.459,22.358c-0.256,2.329-0.49,4.66-0.763,6.986c-0.042,0.361-0.129,0.829-0.373,1.037
			c-1.687,1.434-3.415,2.821-5.15,4.198c-0.197,0.156-0.521,0.154-0.988,0.004c0.274-0.382,0.544-0.767,0.821-1.147
			c1.129-1.546,2.331-3.044,3.363-4.652c0.638-0.993,0.933-2.184-0.076-3.181c-0.994-0.982-2.256-1.079-3.442-0.51
			c-1.131,0.543-2.145,1.329-3.273,2.049c-0.016-0.23,0.041-0.509-0.065-0.694c-0.214-0.374-0.465-0.902-0.796-0.986
			c-0.343-0.087-0.982,0.164-1.173,0.467c-0.516,0.819-0.815,1.771-1.289,2.62c-0.505,0.906-0.989,1.877-1.705,2.599
			c-1.013,1.021-2.207,1.872-3.374,2.728c-0.403,0.296-0.956,0.388-1.441,0.573c-0.087-0.081-0.174-0.162-0.261-0.243
			c0.241-0.79,0.423-1.604,0.732-2.366c1.921-4.737,3.87-9.463,5.811-14.193c0.032-0.079,0.082-0.15,0.113-0.229
			c0.345-0.892,0.764-1.83-0.372-2.46c-0.857-0.475-1.798,0.084-2.311,1.382c-2.131,5.386-4.235,10.783-6.362,16.171
			c-0.152,0.384-0.321,0.899-0.632,1.055c-0.796,0.399-1.676,0.629-2.522,0.926c0.047-0.771-0.057-1.592,0.173-2.303
			c0.511-1.577,1.212-3.091,1.788-4.648c0.188-0.507,0.36-1.084,0.297-1.599c-0.047-0.386-0.432-0.95-0.761-1.026
			c-0.397-0.092-1.053,0.116-1.313,0.43c-0.418,0.505-0.565,1.225-0.895,1.814c-1.097,1.957-2.14,3.954-3.381,5.819
			c-0.568,0.853-1.599,1.747-2.671,1.128c-0.343-0.198-0.146-1.737,0.144-2.541c0.561-1.555,1.355-3.028,2.068-4.527
			c0.371-0.78,0.694-1.587-0.325-2.075c-0.927-0.444-1.776-0.056-2.129,0.825c-1.152,2.878-2.343,5.756-3.232,8.72
			c-0.589,1.964,0.815,3.275,2.898,3.084c1.676-0.154,2.827-0.845,4.808-2.936c0.082,1.307-0.181,2.971,1.653,2.871
			c1.208-0.066,2.381-0.749,3.62-1.173c1.652,1.977,3.085,1.77,7.131-1.309c-0.919,1.998-1.744,3.738-2.521,5.501
			c-0.463,1.051-0.972,2.108-1.216,3.216c-0.116,0.529,0.202,1.563,0.562,1.69c0.53,0.186,1.424-0.057,1.885-0.446
			c0.508-0.429,0.751-1.209,1.026-1.871c1.222-2.95,2.237-6.002,3.677-8.84c1.002-1.975,2.509-3.714,3.92-5.453
			c0.56-0.689,1.445-1.177,2.76-0.795c-0.397,0.651-0.691,1.231-1.075,1.743c-1.049,1.398-2.169,2.743-3.196,4.156
			c-0.584,0.804-1.068,1.73-0.415,2.719c0.687,1.04,1.813,1.211,2.852,0.87c1.27-0.418,2.488-1.047,3.65-1.721
			C87.904,75.421,88.561,74.727,89.586,73.886z"/>
		<path fill="#E84A4B" d="M44.277,100.21c13.769,3.943,27.282,3.953,40.995-0.022c-0.831,1.469-1.687,2.816-2.37,4.246
			c-0.465,0.974-0.907,2.047-0.981,3.103c-0.363,5.188-0.595,10.385-0.882,15.579c-0.056,1.021-0.001,2.083-0.28,3.045
			c-0.186,0.642-0.765,1.425-1.356,1.647c-1.86,0.701-3.775,1.37-5.728,1.687c-6.707,1.09-13.417,1.051-20.056-0.556
			c-3.99-0.966-4.366-1.473-4.667-5.698c-0.375-5.272-0.706-10.546-1.117-15.815c-0.06-0.773-0.345-1.577-0.71-2.269
			C46.274,103.54,45.309,101.984,44.277,100.21z"/>
	</g>
</g>
</svg>
