<?xml version="1.0" encoding="utf-8"?>
<!-- Generator: Adobe Illustrator 17.0.2, SVG Export Plug-In . SVG Version: 6.00 Build 0)  -->
<!DOCTYPE svg PUBLIC "-//W3C//DTD SVG 1.1//EN" "http://www.w3.org/Graphics/SVG/1.1/DTD/svg11.dtd">
<svg version="1.1" id="Calque_1" xmlns="http://www.w3.org/2000/svg" xmlns:xlink="http://www.w3.org/1999/xlink" x="0px" y="0px"
	 width="130px" height="130px" viewBox="0 0 130 130" enable-background="new 0 0 130 130" xml:space="preserve">
<path d="M8.873,65c0-10.178,2.507-19.57,7.521-28.176s11.824-15.416,20.43-20.43S54.822,8.873,65,8.873s19.57,2.507,28.176,7.521
	s15.416,11.824,20.43,20.43c5.014,8.606,7.521,17.998,7.521,28.176s-2.507,19.57-7.521,28.176
	c-5.014,8.606-11.824,15.416-20.43,20.43c-8.606,5.014-17.998,7.521-28.176,7.521s-19.57-2.507-28.176-7.521
	c-8.606-5.014-15.416-11.824-20.43-20.43S8.873,75.178,8.873,65z M13.251,65c0,10.103,2.675,19.345,8.026,27.727
	s12.404,14.668,21.16,18.859L17.741,43.896C14.748,50.557,13.251,57.591,13.251,65z M21.67,36.6h3.368
	c3.592,0,8.195-0.225,13.807-0.674c0.898-0.075,1.553,0.225,1.964,0.898c0.412,0.674,0.468,1.384,0.168,2.133
	s-0.898,1.16-1.796,1.235l-5.949,0.561l18.859,56.015l11.338-33.901l-8.082-22.114c-1.796-0.225-3.592-0.412-5.388-0.561
	c-0.898-0.075-1.497-0.486-1.796-1.235s-0.243-1.459,0.168-2.133c0.412-0.674,1.066-0.973,1.964-0.898L63.877,36.6
	c3.667,0,8.269-0.225,13.807-0.674c0.898-0.075,1.553,0.225,1.964,0.898c0.412,0.674,0.468,1.384,0.168,2.133
	s-0.898,1.16-1.796,1.235l-5.837,0.561l18.634,55.678l5.164-17.287c2.694-8.756,4.041-14.331,4.041-16.726
	c0-4.79-1.459-9.579-4.378-14.369c-0.15-0.225-0.617-1.01-1.403-2.357c-0.786-1.347-1.291-2.226-1.515-2.638
	c-0.225-0.412-0.561-1.123-1.01-2.133c-0.449-1.01-0.748-1.89-0.898-2.638c-0.15-0.748-0.225-1.534-0.225-2.357
	c0-2.47,0.842-4.621,2.526-6.455c1.684-1.833,3.761-2.75,6.23-2.75c0.075,0,0.187,0.019,0.337,0.056
	c0.15,0.037,0.262,0.056,0.337,0.056C90.22,17.778,78.545,13.251,65,13.251c-8.905,0-17.175,2.095-24.808,6.286
	S26.385,29.415,21.67,36.6z M50.407,114.729c4.64,1.347,9.504,2.021,14.593,2.021c5.987,0,11.712-0.973,17.175-2.919l-0.337-0.674
	L65.898,69.49L50.407,114.729z M91.043,109.789c7.858-4.565,14.107-10.833,18.746-18.803c4.64-7.97,6.96-16.632,6.96-25.987
	c0-8.98-2.095-17.25-6.286-24.808c0.225,1.572,0.337,3.33,0.337,5.276c0,4.715-1.31,10.889-3.929,18.522L91.043,109.789z"/>
</svg>
