<?xml version="1.0" encoding="UTF-8" standalone="no"?>
<svg width="87px" height="117px" viewBox="0 0 87 117" version="1.1" xmlns="http://www.w3.org/2000/svg" xmlns:xlink="http://www.w3.org/1999/xlink" xmlns:sketch="http://www.bohemiancoding.com/sketch/ns">
    <!-- Generator: Sketch 3.2.2 (9983) - http://www.bohemiancoding.com/sketch -->
    <title>Group</title>
    <desc>Created with Sketch.</desc>
    <defs></defs>
    <g id="Page-1" stroke="none" stroke-width="1" fill="none" fill-rule="evenodd" sketch:type="MSPage">
        <g id="Group" sketch:type="MSLayerGroup" transform="translate(-0.389394, -0.679175)">
            <path d="M67.6344114,46.0944759 C67.0766024,45.6983813 65.5855796,45.2013178 64.687011,45.1474512 C62.2360285,46.2058342 58.2021906,50.0828843 56.8573853,51.7831054 C56.7992537,52.0317717 56.9067325,52.1850489 56.9067325,52.1850489 C62.2825908,55.0398194 67.984636,52.1960933 67.6344181,46.0944724 L67.6344114,46.0944759 Z M20.0734338,46.0944759 C20.6312428,45.6983813 22.1222656,45.2013178 23.0208342,45.1474512 C25.4718167,46.2058342 29.5056546,50.0828843 30.8504599,51.7831054 C30.9085915,52.0317717 30.8011127,52.1850489 30.8011127,52.1850489 C25.4252544,55.0398194 19.7232092,52.1960933 20.0734272,46.0944724 L20.0734338,46.0944759 Z M44.4282485,116.908982 C36.9247047,117.09339 32.9261776,114.303087 29.8296697,112.551749 C16.954191,109.983258 16.6289849,104.064864 14.4175939,101.240684 C-0.86905499,95.4093952 2.32954949,77.9428524 7.866811,73.9204127 C8.93964436,76.7043952 11.8705752,82.4783825 14.1296603,83.4766464 C14.5204681,80.0123343 14.9450699,69.5646301 14.6965124,67.2514958 C14.5378807,65.1068759 13.4918048,63.5894596 11.4978028,62.5219976 C8.97113682,61.2526466 0.912481426,57.5139596 0.932536415,52.1491343 C0.953746363,46.4763151 6.53808998,46.1023024 6.60527857,42.8182096 C6.64611036,40.8224681 6.72362596,38.6299633 6.6917147,36.6025313 C-2.03569141,23.2475946 10.2132133,22.3137946 11.3344011,22.3528572 C13.7915314,11.6459699 3.69930004,11.4838843 2.22052041,11.4321386 C19.0136756,-2.75240783 29.9985204,15.0859988 30.332887,15.5036861 C30.8892299,16.1986973 32.4368919,15.7004424 32.3445689,14.5789897 C31.9128244,9.33449693 37.3592972,2.9226144 38.3222169,3.09776741 C37.9506987,4.64978801 38.5071485,9.00686681 39.654744,10.3376698 C39.9995165,10.7374837 40.3402183,10.6651759 40.3711503,10.3672839 C41.0276526,4.04500437 45.999176,0.9445375 49.1767971,0.965448946 C47.6271052,2.9895616 48.0235442,7.70342425 49.2597448,10.487005 C49.3329152,10.6517641 49.618356,10.7052806 49.7264007,10.5674125 C51.1641999,8.73270832 54.0440912,4.91650049 56.358507,4.98933242 C54.8702832,7.75448242 53.9601054,14.3422866 55.6148225,15.4251921 C56.2396431,15.8340955 56.9809596,15.8559643 57.3986832,15.5171144 C58.4370517,14.6748198 70.691183,-2.84896997 85.380561,11.5526746 C84.176272,11.5315196 73.4750958,11.627051 76.7797202,22.3221216 C77.7237445,22.3284491 89.8017141,23.54817 81.4310767,36.1064855 C81.3324569,37.7635594 81.2775076,40.9007794 81.2930983,42.6456361 C81.3249132,46.2062595 86.9957916,46.4299089 86.972111,52.1356764 C86.9494613,57.5935463 77.902579,61.7101836 75.9552833,62.9000047 C73.9242995,64.0638289 73.1277399,65.5206439 73.098104,67.2373391 C73.0515668,69.9331686 73.3455563,79.6990059 73.6220805,83.4963812 C76.1140837,82.0808283 79.1262732,75.9208475 79.9432031,73.7092656 C84.1146585,76.3074035 89.9096748,94.8885246 73.6828585,101.158639 C71.7216732,105.329573 66.8588198,111.402907 58.6929359,112.355749 C55.0912699,114.455226 51.9317945,116.724424 44.4282507,116.908836 L44.4282485,116.908982 Z" id="Shape" fill="#4D3001" sketch:type="MSShapeGroup"></path>
            <path d="M67.6344114,46.0944759 C67.0766024,45.6983813 65.5855796,45.2013178 64.687011,45.1474512 C62.2360285,46.2058342 58.2021906,50.0828843 56.8573853,51.7831054 C56.7992537,52.0317717 56.9067325,52.1850489 56.9067325,52.1850489 C62.2825908,55.0398194 67.984636,52.1960933 67.6344181,46.0944724 L67.6344114,46.0944759 Z M20.0734338,46.0944759 C20.6312428,45.6983813 22.1222656,45.2013178 23.0208342,45.1474512 C25.4718167,46.2058342 29.5056546,50.0828843 30.8504599,51.7831054 C30.9085915,52.0317717 30.8011127,52.1850489 30.8011127,52.1850489 C25.4252544,55.0398194 19.7232092,52.1960933 20.0734272,46.0944724 L20.0734338,46.0944759 Z M44.3739511,114.101048 C37.7273246,114.274732 34.1854383,111.646705 31.4425637,109.997234 C20.0374925,107.578127 19.0488077,102.003943 17.0899695,99.3440139 C16.4488158,92.6430747 17.2963432,84.209438 17.5355318,81.9550024 C17.8817089,78.6921705 18.2578197,69.5102639 18.0376474,67.3316476 C17.7813499,64.7955801 16.4659633,61.5453614 14.047878,60.2612904 C12.0084694,59.1782941 4.8529191,56.3657693 4.79462827,52.2341428 C4.76324387,50.01 5.59751446,48.843309 7.22727226,47.797003 C6.94796493,48.6208616 6.75955837,50.0949211 6.92779434,50.6472837 C11.5162184,45.2260133 10.8763153,33.6072506 9.19547947,31.3025367 C9.2116684,31.7773628 9.17232988,33.5957205 9.2381973,34.1536036 C7.86504003,32.9349136 6.84371909,30.2616289 6.91157327,28.0167319 C7.03655701,23.8815765 19.8611415,23.4230271 34.6562942,36.5308 C39.03739,40.4122404 39.7117981,43.9453837 43.8176238,43.9378367 C47.8139965,43.9304925 48.2166551,40.5043241 52.3387525,36.7844976 C66.7654364,23.7656988 80.9485529,23.8848434 80.951005,28.2013012 C80.9526945,31.1964596 79.6259307,32.9168584 78.5416739,34.0742904 C78.5435903,33.5297979 78.5775248,31.9056669 78.638722,31.2054392 C76.4510641,36.2191024 76.8022104,44.4668422 80.8162735,50.6494151 C80.9648908,49.932163 80.8580823,48.5140367 80.5702592,47.689703 C82.4812633,48.9892052 82.9450678,50.2062916 82.9351191,52.2214946 C82.915056,56.2796253 74.9334059,59.5452349 73.1764311,60.6128018 C71.4034124,61.6199386 69.8069651,65.028244 69.7697802,67.318353 C69.7285576,69.8573904 69.9889734,78.3971042 70.2339175,81.9736253 C70.3522414,83.7013195 71.2503989,93.2043295 70.9883669,99.2668669 C69.2511547,103.195231 64.2430244,108.915324 57.0097062,109.812752 C53.8193514,111.790133 51.0207083,113.927345 44.3740643,114.101031 L44.3739511,114.101048 Z" id="Shape" fill="#EE8700" sketch:type="MSShapeGroup"></path>
            <path d="M67.6344114,46.0944759 C67.0766024,45.6983813 65.5855796,45.2013178 64.687011,45.1474512 C62.2360285,46.2058342 58.2021906,50.0828843 56.8573853,51.7831054 C56.7992537,52.0317717 56.9067325,52.1850489 56.9067325,52.1850489 C62.2825908,55.0398194 67.984636,52.1960933 67.6344181,46.0944724 L67.6344114,46.0944759 Z M20.0734338,46.0944759 C20.6312428,45.6983813 22.1222656,45.2013178 23.0208342,45.1474512 C25.4718167,46.2058342 29.5056546,50.0828843 30.8504599,51.7831054 C30.9085915,52.0317717 30.8011127,52.1850489 30.8011127,52.1850489 C25.4252544,55.0398194 19.7232092,52.1960933 20.0734272,46.0944724 L20.0734338,46.0944759 Z M44.3739511,114.101048 C37.7273246,114.274732 34.1854383,111.646705 31.4425637,109.997234 C20.0374925,107.578127 19.0488077,102.003943 17.0899695,99.3440139 C19.526134,85.9253645 23.0756745,70.8639175 21.8448937,63.2561343 C21.8926508,64.1161887 21.0810718,66.639788 20.5528917,66.6634771 C20.4145783,54.0906494 7.61192346,56.0319723 7.62840534,52.7437042 C12.2168294,47.3224337 10.8763153,33.6073729 9.19547947,31.3025717 C9.2116684,31.7773978 9.17232988,33.5957554 9.2381973,34.1536386 C7.86504003,32.9349485 6.84371909,30.2616639 6.91157327,28.0167669 C7.03655701,23.8816114 19.8611415,23.423062 34.6562942,36.5308349 C39.03739,40.4122753 39.7117981,43.9454187 43.8176238,43.9378717 C47.8139965,43.9305275 48.2166551,40.504359 52.3387525,36.7845325 C66.7654364,23.7657337 80.9485529,23.8848783 80.951005,28.2013361 C80.9526945,31.1964946 79.6259307,32.9168934 78.5416739,34.0743253 C78.5435903,33.5298328 78.5775248,31.9057018 78.638722,31.2054741 C76.4510641,36.2191373 76.1015994,46.5632627 80.1156678,52.7458355 C80.0881744,56.1209114 67.4382344,54.2404327 67.4121191,66.3564614 C66.7946934,66.329326 66.0196162,63.8671958 65.9990655,63.2657777 C64.9523282,70.4282536 68.4864272,86.2267898 70.9883617,99.2668319 C69.2511494,103.195196 64.2430191,108.915289 57.009701,109.812717 C53.8193462,111.790098 51.020703,113.92731 44.374059,114.100996 L44.3739511,114.101048 Z" id="Shape" fill="#F7A816" sketch:type="MSShapeGroup"></path>
            <path d="M54.7021833,69.3086265 L69.093101,93.1744036 L42.5478261,108.698366 L18.6836143,93.6527813 L33.1354326,69.4154199 C33.1354326,69.4154199 30.8894489,85.9798181 26.5856831,92.3664741 C25.4309133,94.080112 42.7301776,102.776059 42.7301776,102.776059 C42.7301776,102.776059 62.3425564,94.3376705 61.0586868,92.1323952 C56.872466,84.9421072 54.7022183,69.3086964 54.7022183,69.3086964 L54.7021833,69.3086265 Z" id="Shape" fill="#EE8700" sketch:type="MSShapeGroup"></path>
            <path d="M44.1670957,103.720271 C36.6635519,103.90468 19.5036619,103.180721 14.4175764,101.240596 C-0.869072505,95.4093078 2.32953198,77.9427651 7.86679348,73.9203253 C13.7945931,86.6604446 13.7865886,86.696153 44.1885695,86.5038096 C74.0288179,86.3150231 74.0543902,86.3679815 79.9432008,73.7092367 C84.1146562,76.3073747 89.9096725,94.8884958 73.6828562,101.15861 C68.2628244,103.252987 51.6707096,103.535772 44.1671658,103.720184 L44.1670957,103.720271 Z" id="Shape" fill="#4D3101" sketch:type="MSShapeGroup"></path>
            <g transform="translate(6.170882, 79.485025)" id="Shape" fill="#F9F4F4" sketch:type="MSShapeGroup">
                <path d="M37.9776078,20.7811247 C30.9483029,20.8947923 15.5873686,20.3921396 10.8089509,19.252678 C3.54779712,17.521185 -2.47805966,9.92845328 1.16913879,0.141710289 C6.55343204,9.77828991 9.51724226,10.2876824 37.9976751,10.1691239 C65.9519602,10.0527578 69.1661771,9.91684402 74.2949114,0.0115866467 C78.0416753,9.88039454 71.7265735,17.7427097 64.9271814,19.2022395 C59.8046329,20.3018295 45.0068798,20.667498 37.9775749,20.7811678 L37.9776078,20.7811247 Z"></path>
            </g>
            <g transform="translate(6.170882, 79.485025)" id="Shape" fill="#B9B7B2" sketch:type="MSShapeGroup">
                <path d="M37.9776078,20.7811247 C30.9483029,20.8947923 15.5873686,20.3921396 10.8089509,19.252678 C3.54779712,17.521185 -2.47805966,9.92845328 1.16913879,0.141710289 C1.3184316,7.05113139 4.07120467,14.8394147 14.732317,16.0724881 C20.2146333,16.7065835 27.567903,16.6961587 37.9977735,16.6527422 C48.15082,16.6104778 55.4724218,16.3533706 60.7568707,16.012525 C71.2340135,15.3367511 74.0943695,7.08694124 74.2951412,0.0115381896 C78.041905,9.88034608 71.7268032,17.7426612 64.9274111,19.202191 C59.8048626,20.301781 45.0071095,20.6674496 37.9778047,20.7811193 L37.9776078,20.7811247 Z"></path>
            </g>
            <path d="M54.7021833,69.3086265 L61.0360745,93.1744036 L43.2484371,108.698366 L26.3903352,93.6527813 L33.1354326,69.4154199 L54.7021658,69.3086216 L54.7021833,69.3086265 Z" id="Shape" fill="#F7A816" sketch:type="MSShapeGroup"></path>
            <path d="M54.7021833,69.3086265 L64.5391295,93.1744036 L42.5478261,108.698366 L23.2375857,93.6527813 L33.1354326,69.4154199 C33.1354326,69.4154199 30.8894489,85.9798181 26.5856831,92.3664741 C25.4309133,94.080112 42.7301776,102.776059 42.7301776,102.776059 C42.7301776,102.776059 62.3425564,94.3376705 61.0586868,92.1323952 C56.872466,84.9421072 54.7022183,69.3086964 54.7022183,69.3086964 L54.7021833,69.3086265 Z" id="Shape" fill="#4D3001" sketch:type="MSShapeGroup"></path>
            <path d="M44.4282485,116.908982 C28.6326758,116.971717 20.7076619,103.316769 20.7510998,95.5873434 C20.784878,89.5539633 28.2018175,89.4209301 44.1147251,89.4603946 C59.8054163,89.499308 67.2105418,89.4707668 67.1387291,95.4369976 C67.0487504,102.924693 60.2238562,116.846335 44.4282485,116.909052 L44.4282485,116.908982 Z" id="Shape" fill="#4D3001" sketch:type="MSShapeGroup"></path>
            <g transform="translate(24.221586, 92.319120)" id="Shape" fill="#EE8700" sketch:type="MSShapeGroup">
                <path d="M20.1350962,21.5452878 C6.67911631,21.5941079 -0.0625188432,8.94302306 -0.0350642677,4.95281003 C0.00831232037,-1.37584552 6.31207549,0.154113405 19.8680109,0.184824606 C32.1511432,0.212652435 39.5739801,-1.40810656 39.4817686,4.83581109 C39.4222041,8.87183942 33.5911059,21.496536 20.1350962,21.5453422 L20.1350962,21.5452878 Z"></path>
            </g>
            <g transform="translate(24.221586, 92.319120)" id="Shape" fill="#F7A916" sketch:type="MSShapeGroup">
                <path d="M20.1350962,16.8283518 C6.67911631,16.8771719 -0.0625188432,8.94295509 -0.0350642677,4.95270127 C0.00831232037,-1.37595428 6.31207549,0.154004645 19.8680109,0.184715846 C32.1511432,0.212543675 39.5739801,-1.40821532 39.4817686,4.83570233 C39.4222041,8.87173066 33.5911059,16.779532 20.1350962,16.8283518 L20.1350962,16.8283518 Z"></path>
            </g>
            <g transform="translate(48.883519, 95.731507)" id="Shape" fill="#EE8700" sketch:type="MSShapeGroup">
                <path d="M5.86600308,9.3457643 C1.21445325,9.46477582 -0.0182137559,3.08786969 -0.0102153524,1.77019845 C0.00242164708,-0.319651213 1.83891122,0.0108732232 5.78819253,0.0210146812 C9.36666524,0.0302039914 11.5291771,-0.330304907 11.5023129,1.73156304 C11.4849598,3.06434097 8.97305684,9.26627575 5.86600308,9.34578226 L5.86600308,9.3457643 Z"></path>
            </g>
            <g transform="translate(48.883519, 95.731507)" id="Shape" fill="#4D3001" sketch:type="MSShapeGroup">
                <path d="M5.86600308,7.59877583 C2.83093061,7.64640657 -0.0182137559,3.08786969 -0.0102153524,1.77019845 C0.00242164708,-0.319651213 1.83891122,0.0108732232 5.78819253,0.0210146812 C9.36666524,0.0302039914 11.5291771,-0.330304907 11.5023129,1.73156304 C11.4849598,3.06434097 8.97369584,7.54999448 5.86600308,7.59879379 L5.86600308,7.59877583 Z"></path>
            </g>
            <g transform="translate(27.339731, 95.731507)" id="Shape" fill="#EE8700" sketch:type="MSShapeGroup">
                <path d="M5.86600308,9.3457643 C2.83073065,9.37837917 -0.0182137559,3.08786969 -0.0102153524,1.77019845 C0.00242164708,-0.319651213 1.83891122,0.0108732232 5.78819253,0.0210146812 C9.36666524,0.0302039914 11.5291771,-0.330304907 11.5023129,1.73156304 C11.4849598,3.06434097 10.4047537,9.29698295 5.86600308,9.34578226 L5.86600308,9.3457643 Z"></path>
            </g>
            <g transform="translate(27.339731, 95.731507)" id="Shape" fill="#4D3101" sketch:type="MSShapeGroup">
                <path d="M5.86600308,7.59877583 C2.83093061,7.64640657 -0.0182137559,3.08786969 -0.0102153524,1.77019845 C0.00242164708,-0.319651213 1.83891122,0.0108732232 5.78819253,0.0210146812 C9.36666524,0.0302039914 11.5291771,-0.330304907 11.5023129,1.73156304 C11.4849598,3.06434097 8.97369584,7.54999448 5.86600308,7.59879379 L5.86600308,7.59877583 Z"></path>
            </g>
            <path d="M57.4466517,50.4872771 C56.8216104,51.0535108 56.2060115,51.7832801 55.805826,52.2121552 C62.7353067,56.5512365 69.1848163,51.0722246 67.7818778,46.2058883 C67.4273896,51.9478883 61.0814444,53.5342407 57.446657,50.4872841 L57.4466517,50.4872771 Z" id="Shape" fill="#B3B3B3" sketch:type="MSShapeGroup"></path>
            <path d="M74.8076171,40.2436386 C55.320998,32.9001398 56.2994012,52.6370157 48.1551487,49.7078584 C48.2241575,52.8446452 51.7062481,54.1286639 52.8970415,54.1342367 C52.8614636,56.2704361 54.5287015,61.9129102 59.7809124,63.4221681 C58.6764009,61.7613922 58.4324745,59.7106223 58.3867596,58.16915 C59.063196,58.4650915 72.4824574,61.0851175 71.0867001,43.232403 C70.9858533,41.6822028 70.5050248,41.4330928 71.0864721,40.9165084 C71.9713578,40.6180652 73.6987877,40.5882389 74.8075572,40.2436455 L74.8076171,40.2436386 Z M67.6344114,46.0944759 C67.0766024,45.6983813 65.5855796,45.2013178 64.687011,45.1474512 C62.2360285,46.2058342 58.2021906,50.0828843 56.8573853,51.7831054 C56.7992537,52.0317717 56.9067325,52.1850489 56.9067325,52.1850489 C62.2825908,55.0398194 67.984636,52.1960933 67.6344181,46.0944724 L67.6344114,46.0944759 Z" id="Shape" fill="#EE8700" sketch:type="MSShapeGroup"></path>
            <path d="M74.8076171,40.2436386 C56.9169898,38.1464319 57.844809,53.2952807 48.1551487,49.7078584 C48.2241575,52.8446452 51.7062481,54.1286639 52.8970415,54.1342367 C52.936639,56.1129627 53.8498813,58.8203223 55.8569829,61.1046488 C54.7890065,57.1049548 55.5981859,54.8879398 56.1445539,53.7645217 C57.7924558,56.3519331 72.6163389,57.3088283 71.0867124,43.2323855 C71.0237779,42.6532293 72.3832631,46.1417843 72.382587,48.1053464 C74.7887304,44.0530855 72.8788788,41.967147 71.939927,41.3409566 C72.8248127,41.0425134 73.6987934,40.5882232 74.8075628,40.2436298 L74.8076171,40.2436386 Z M67.6344114,46.0944759 C67.0766024,45.6983813 65.5855796,45.2013178 64.687011,45.1474512 C62.2360285,46.2058342 58.2021906,50.0828843 56.8573853,51.7831054 C56.7992537,52.0317717 56.9067325,52.1850489 56.9067325,52.1850489 C62.2825908,55.0398194 67.984636,52.1960933 67.6344181,46.0944724 L67.6344114,46.0944759 Z" id="Shape" fill="#4D3001" sketch:type="MSShapeGroup"></path>
            <g transform="translate(26.329365, 50.963855) scale(-1, 1) translate(-26.329365, -50.963855) translate(13.017756, 38.560241)" id="Shape" sketch:type="MSShapeGroup">
                <g transform="translate(7.737996, 7.686747)" fill="#B3B3B3">
                    <path d="M1.62384114,4.24028916 C0.998799796,4.80652289 0.383200937,5.53629217 -0.0169845621,5.96516723 C6.91249609,10.3042486 13.3620057,4.82523663 11.9590672,-0.0410996386 C11.604579,5.70090036 5.25863377,7.28725277 1.6238464,4.24029614 L1.62384114,4.24028916 Z"></path>
                </g>
                <path d="M26.6915275,1.68339759 C7.20490835,-5.6601012 8.18331161,14.0767747 0.0390590631,11.1476175 C0.108067845,14.2844042 3.59015845,15.5684229 4.78095193,15.5739958 C4.74537403,17.7101952 6.41261189,23.3526693 11.6648228,24.8619271 C10.5603113,23.2011513 10.3163848,21.1503813 10.27067,19.608909 C10.9471064,19.9048505 24.3663677,22.5248765 22.9706105,4.67216205 C22.8697637,3.12196181 22.3889352,2.87285181 22.9703824,2.35626747 C23.8552681,2.05782428 25.5826981,2.02799795 26.6914676,1.68340458 L26.6915275,1.68339759 Z M19.5183218,7.53423494 C18.9605128,7.13814036 17.46949,6.64107687 16.5709214,6.58721024 C14.1199389,7.64559319 10.086101,11.5226434 8.74129572,13.2228645 C8.6831641,13.4715307 8.79064291,13.624808 8.79064291,13.624808 C14.1665012,16.4795784 19.8685464,13.6358524 19.5183284,7.53423145 L19.5183218,7.53423494 Z" fill="#EE8700"></path>
                <path d="M26.6915275,1.68339759 C8.8009002,-0.413809036 9.72871935,14.7350398 0.0390590631,11.1476175 C0.108067845,14.2844042 3.59015845,15.5684229 4.78095193,15.5739958 C4.82054942,17.5527217 5.73379165,20.2600813 7.74089328,22.5444078 C6.6729169,18.5447139 7.48209633,16.3276988 8.02846432,15.2042807 C9.67636619,17.7916922 24.5002492,18.7485873 22.9706228,4.67214458 C22.9076883,4.09298837 24.2671735,7.58154337 24.2664974,9.54510542 C26.6726408,5.49284458 24.7627892,3.40690602 23.8238374,2.78071566 C24.7087231,2.48227247 25.5827037,2.02798223 26.6914732,1.68338886 L26.6915275,1.68339759 Z M19.5183218,7.53423494 C18.9605128,7.13814036 17.46949,6.64107687 16.5709214,6.58721024 C14.1199389,7.64559319 10.086101,11.5226434 8.74129572,13.2228645 C8.6831641,13.4715307 8.79064291,13.624808 8.79064291,13.624808 C14.1665012,16.4795784 19.8685464,13.6358524 19.5183284,7.53423145 L19.5183218,7.53423494 Z" fill="#4D3001"></path>
            </g>
            <path d="M79.0946558,10.3039337 C79.041801,10.2822585 77.049187,11.589467 77.048136,11.5892661 C69.2265849,10.0980704 64.7146676,16.8280987 63.7681071,18.3081119 C63.7909159,18.2937865 61.1589617,17.0216125 61.2004554,16.9668217 C62.4955821,15.256421 68.5020656,5.95999404 79.0945857,10.303932 L79.0946558,10.3039337 Z" id="Shape" fill="#F7A816" sketch:type="MSShapeGroup"></path>
            <path d="M74.2420489,14.1266928 C70.3438668,13.6578728 67.1865633,18.4297861 67.1394648,20.6194434 C67.8609837,21.2041288 68.5209891,21.7666502 69.4776839,23.0929861 C69.9801323,22.8929578 70.4540204,22.8108441 71.7002847,22.6748917 C73.4313999,21.4778189 72.2841494,16.3056183 74.2420489,14.126705 L74.2420489,14.1266928 Z" id="Shape" fill="#EE8700" sketch:type="MSShapeGroup"></path>
            <g transform="translate(17.563320, 16.111446) scale(-1, 1) translate(-17.563320, -16.111446) translate(8.630530, 9.210843)" id="Shape" sketch:type="MSShapeGroup">
                <path d="M17.84211,1.09309036 C17.7892552,1.07141513 15.7966411,2.37862367 15.7955902,2.37842277 C7.9740391,0.887227048 3.46212179,7.6172553 2.5155613,9.09726855 C2.53837004,9.08294313 -0.0935841141,7.81076916 -0.0520904277,7.75597837 C1.24303629,6.04557759 7.24951976,-3.25084934 17.8420399,1.09308861 L17.84211,1.09309036 Z" fill="#F7A816"></path>
                <path d="M12.9895031,4.9158494 C9.09132098,4.44702946 5.93401752,9.21894277 5.88691894,11.4086 C6.60843792,11.9932854 7.26844326,12.5558068 8.22513809,13.8821428 C8.72758652,13.6821144 9.20147454,13.6000007 10.4477389,13.4640484 C12.1788541,12.2669755 11.0316036,7.09477488 12.9895031,4.91586163 L12.9895031,4.9158494 Z" fill="#EE8700"></path>
            </g>
            <g transform="translate(22.193483, 17.072289)" id="Shape" fill="#F7A816" sketch:type="MSShapeGroup">
                <path d="M43.2530957,7.37176506 C34.3547405,-2.36905542 8.5106721,-2.30240783 -0.0735641548,7.33627937 C5.69538941,10.2112101 8.74203136,13.744598 11.1758314,16.863583 C12.7756976,19.3593649 12.249036,20.109242 14.2918688,21.2713559 C16.0909678,23.1955233 18.4389955,24.3982721 21.6291927,24.4781444 C24.9027976,24.5600942 26.8363788,23.2695327 28.5765914,21.2696613 C29.6843327,20.637346 30.2689015,20.0482302 31.8818114,16.9075547 C34.2231483,13.7453667 37.3384501,10.1922029 43.2530257,7.37177816 L43.2530957,7.37176506 Z"></path>
            </g>
            <path d="M50.7948758,38.3284157 C47.8663743,40.2421711 39.7156411,40.3435837 36.4967189,38.3512268 C38.2900204,40.2736473 40.6377328,41.4707533 43.8228855,41.5504858 C47.1005365,41.6325366 49.0430855,40.3238837 50.7948758,38.3284111 L50.7948758,38.3284157 Z M52.7698982,36.4313614 L52.7809921,36.4100917 L52.8517816,36.3534194 L52.7698983,36.4313614 L52.7698982,36.4313614 Z M34.3946232,35.7503855 C32.2237275,32.0027645 27.3951165,26.986341 22.0450057,24.4718139 C23.5856668,22.8712375 24.9616493,21.751806 27.5790094,20.4498283 C27.5099176,21.789106 27.5473859,22.3671127 27.7136785,23.6692651 C28.4643499,25.1723019 32.2201311,31.6248386 34.3946174,35.7503855 L34.3946232,35.7503855 Z M53.1251079,35.7503855 C55.2995943,31.6248386 59.0553772,25.1723036 59.8060468,23.6692651 C59.9723395,22.3671057 59.9282311,21.7824482 59.8591393,20.4431723 C61.575307,21.292163 63.680009,22.5367102 65.4759377,24.4712199 C60.167268,26.9570964 55.3420375,31.955456 53.1251116,35.7503855 L53.1251079,35.7503855 Z" id="Shape" fill="#EE8700" sketch:type="MSShapeGroup"></path>
        </g>
    </g>
</svg>