<?xml version="1.0" encoding="utf-8"?>
<!-- Generator: Adobe Illustrator 17.0.2, SVG Export Plug-In . SVG Version: 6.00 Build 0)  -->
<!DOCTYPE svg PUBLIC "-//W3C//DTD SVG 1.1//EN" "http://www.w3.org/Graphics/SVG/1.1/DTD/svg11.dtd">
<svg version="1.1" id="Calque_1" xmlns="http://www.w3.org/2000/svg" xmlns:xlink="http://www.w3.org/1999/xlink" x="0px" y="0px"
	 width="130px" height="130px" viewBox="0 0 130 130" enable-background="new 0 0 130 130" xml:space="preserve">
<g>
	<g>
		<polygon fill="#303F9F" points="29.042,65 17.057,85.76 29.042,106.52 41.027,85.76 		"/>
		<polygon fill="#3F51B5" points="100.958,23.48 88.972,44.24 100.958,65 112.943,44.24 		"/>
		<polygon fill="#7986CB" points="112.943,44.24 76.985,106.52 100.958,106.52 124.928,65 		"/>
		<polygon fill="#FF4081" points="76.985,23.48 29.042,106.52 53.015,106.52 100.958,23.48 		"/>
		<polygon fill="#536DFE" points="29.042,23.48 5.07,65 17.057,85.76 53.015,23.48 		"/>
		<polygon fill="#FFFFFF" fill-opacity="0.2" points="76.985,23.48 88.972,44.24 100.958,23.48 		"/>
		<polygon fill="#FFFFFF" fill-opacity="0.1" points="65,44.24 76.985,23.48 88.972,44.24 		"/>
		<polygon fill="#FFFFFF" fill-opacity="0" points="65,44.24 76.985,65 88.972,44.24 		"/>
		<polygon fill-opacity="0.1" points="53.015,65 65,44.24 76.985,65 		"/>
		<polygon fill-opacity="0.2" points="53.015,65 65,85.76 76.985,65 		"/>
		<polygon fill-opacity="0.3" points="41.028,85.76 53.015,65 65,85.76 		"/>
		<polygon fill-opacity="0.4" points="41.028,85.76 53.015,106.52 65,85.76 		"/>
		<polygon fill-opacity="0.5" points="29.042,106.52 41.028,85.76 53.015,106.52 		"/>
		<polygon fill="#FFFFFF" fill-opacity="0.2" points="29.042,23.48 41.028,44.24 53.015,23.48 		"/>
		<polygon fill="#FFFFFF" fill-opacity="0.1" points="17.057,44.24 29.042,23.48 41.028,44.24 		"/>
		<polygon fill="#FFFFFF" fill-opacity="0" points="17.057,44.24 29.042,65 41.028,44.24 		"/>
		<polygon fill-opacity="0.1" points="5.071,65 17.057,44.24 29.042,65 		"/>
		<polygon fill-opacity="0.2" points="5.071,65 17.057,85.76 29.042,65 		"/>
		<polygon fill="#FFFFFF" fill-opacity="0" points="41.028,85.76 29.042,65 17.057,85.76 		"/>
		<polygon fill-opacity="0.2" points="41.028,85.76 29.042,106.52 17.057,85.76 		"/>
		<polygon fill-opacity="0.2" points="112.943,44.24 100.958,23.48 88.972,44.24 		"/>
		<polygon fill="#FFFFFF" fill-opacity="0" points="112.943,44.24 100.958,65 88.972,44.24 		"/>
		<g>
			<polygon fill="#FFFFFF" fill-opacity="0.2" points="100.958,65 112.943,44.24 124.928,65 			"/>
			<polygon fill="#FFFFFF" fill-opacity="0.1" points="100.958,65 112.943,85.76 124.928,65 			"/>
			<polygon fill="#FFFFFF" fill-opacity="0" points="88.972,85.76 100.958,65 112.943,85.76 			"/>
			<polygon fill-opacity="0.1" points="88.972,85.76 100.958,106.52 112.943,85.76 			"/>
			<polygon fill-opacity="0.2" points="76.985,106.52 88.972,85.76 100.958,106.52 			"/>
		</g>
	</g>
	<rect x="4.607" y="4.607" fill="none" width="120.786" height="120.786"/>
</g>
</svg>
