<?xml version="1.0" encoding="utf-8"?>
<!-- Generator: Adobe Illustrator 17.0.2, SVG Export Plug-In . SVG Version: 6.00 Build 0)  -->
<!DOCTYPE svg PUBLIC "-//W3C//DTD SVG 1.1//EN" "http://www.w3.org/Graphics/SVG/1.1/DTD/svg11.dtd">
<svg version="1.1" id="Calque_1" xmlns="http://www.w3.org/2000/svg" xmlns:xlink="http://www.w3.org/1999/xlink" x="0px" y="0px"
	 width="130px" height="130px" viewBox="0 0 130 130" enable-background="new 0 0 130 130" xml:space="preserve">
<g>
	<polygon fill="#B3B3B2" points="64.826,7.244 10.478,26.37 19.066,97.574 64.884,122.756 110.937,97.233 119.522,26.031 	"/>
	<polygon fill="#A51916" points="114.101,30.146 64.699,13.3 64.699,116.74 106.1,93.827 	"/>
	<polygon fill="#DD1C18" points="16.577,30.45 23.936,94.131 64.698,116.74 64.698,13.298 	"/>
	<path fill="#F1F1F1" d="M78.298,68.366l-13.599,6.359H50.366l-6.738,16.852l-12.532,0.232l33.602-74.753L78.298,68.366z
		 M76.983,65.164l-12.194-24.14L54.787,64.749h9.911L76.983,65.164z"/>
	<polygon fill="#B3B3B2" points="64.698,17.056 64.788,41.024 76.138,64.767 64.724,64.767 64.698,74.71 80.481,74.725 
		87.857,91.811 99.848,92.034 	"/>
</g>
</svg>
