<?xml version="1.0" encoding="utf-8"?>
<!-- Generator: Adobe Illustrator 17.0.2, SVG Export Plug-In . SVG Version: 6.00 Build 0)  -->
<!DOCTYPE svg PUBLIC "-//W3C//DTD SVG 1.1//EN" "http://www.w3.org/Graphics/SVG/1.1/DTD/svg11.dtd">
<svg version="1.1" id="Calque_1" xmlns="http://www.w3.org/2000/svg" xmlns:xlink="http://www.w3.org/1999/xlink" x="0px" y="0px"
	 width="130px" height="130px" viewBox="0 0 130 130" enable-background="new 0 0 130 130" xml:space="preserve">
<g>
	<path fill="#5C4283" d="M72.18,56.44c1.295-1.09,1.942-2.661,1.942-4.787c0-2.099-0.647-3.289-1.942-4.38
		C70.886,46.155,68.985,46,66.479,46H58v12h8.479C68.985,58,70.886,57.53,72.18,56.44z"/>
	<path fill="#5C4283" d="M74.246,70.436C72.649,69.1,70.238,68,67.016,68H58v16h9.016c3.195,0,5.591-0.242,7.189-1.578
		c1.625-1.336,2.438-3.356,2.438-6.055C76.643,73.724,75.844,71.744,74.246,70.436z"/>
	<path fill="#5C4283" d="M115,31.855C115,23.098,107.902,16,99.145,16H32.855C24.098,16,17,23.098,17,31.855v66.291
		C17,106.902,24.098,114,32.855,114h66.291c8.756,0,15.855-7.098,15.855-15.855V31.855z M86.517,91.448
		C82.496,94.338,76.381,96,68.173,96H42V34h23.652c8.566,0,14.764,1.539,18.593,4.102c3.856,2.563,5.784,6.794,5.784,12.437
		c0,2.971-0.606,5.571-2.011,7.67C86.614,60.281,84,61.868,82,62.876v0.009c3,0.981,5.963,2.799,7.836,5.443
		c1.873,2.644,2.761,5.999,2.761,9.843C92.598,84.059,90.539,88.559,86.517,91.448z"/>
</g>
</svg>
