<?xml version="1.0" encoding="utf-8"?>
<!-- Generator: Adobe Illustrator 17.0.2, SVG Export Plug-In . SVG Version: 6.00 Build 0)  -->
<!DOCTYPE svg PUBLIC "-//W3C//DTD SVG 1.1//EN" "http://www.w3.org/Graphics/SVG/1.1/DTD/svg11.dtd">
<svg version="1.1" id="Calque_1" xmlns="http://www.w3.org/2000/svg" xmlns:xlink="http://www.w3.org/1999/xlink" x="0px" y="0px"
	 width="130px" height="130px" viewBox="0 0 130 130" enable-background="new 0 0 130 130" xml:space="preserve">
<g>
	<path fill="#27A8E0" d="M107.133,23.122c-15.758,0-27.509,16.654-22.077,28.617C107.359,51.739,98.279,31.152,107.133,23.122z"/>
	<path fill="#FDCB32" d="M112.223,68.079c0-5.295-25.239-7.93-39.298-8.751C58.866,58.508,7.5,68.248,13.581,81.125
		c6.081,12.878,21.51,26.57,38.874,26.57c8.995,0,19.42-6.339,19.994-17.979C82.852,86.242,112.223,86.058,112.223,68.079
		L112.223,68.079z"/>
	<path fill="#39A935" d="M99.316,71.599c1.631,1.651-3.537,6.109-8.04,4.011c2.029,4.574-6.895,8.379-11.23,5.118
		c0.464,3.686-8.393,5.808-11.219,1.694c0.729,1.961,1.338,3.461,1.912,4.695l-0.011-0.035c1.469,1.924,3.469,3.471,12.173,3.471
		c13.412,0,35.077-10.188,35.077-17.667c0-6.19-2.322-6.77-6.319-6.319c-3.998,0.451-24.9,2.623-29.346,1.75
		C84.725,68.831,96.89,71.162,99.316,71.599L99.316,71.599z"/>
	<path fill="#E95735" d="M52.274,19.712c-25.646,0-51.389,25.493-39.138,60.654c8.322,5.002,19.418,3.019,21.905,0.356
		c3.759,1.201,7.112,1.707,10.11,1.707c15.578,0,28.889-16.551,28.889-37.234C74.039,23.982,60.039,19.712,52.274,19.712
		L52.274,19.712z"/>
	<path fill="#FDCB32" d="M41.772,42.413c0,5.723,4.64,10.363,10.363,10.363c5.723,0,10.363-4.64,10.363-10.363
		c0-5.723-4.64-10.363-10.363-10.363C46.411,32.05,41.772,36.69,41.772,42.413z"/>
	<path fill="#543729" d="M45.93,42.413c0,3.426,2.778,6.204,6.204,6.204s6.204-2.778,6.204-6.204c0-3.427-2.778-6.204-6.204-6.204
		C48.708,36.208,45.93,38.986,45.93,42.413z"/>
	<ellipse fill="#FFFFFF" cx="52.134" cy="39.66" rx="3.615" ry="2.248"/>
	<path fill="#CDCDCC" d="M73.392,37.104c-4.711,2.743-4.555,11.624-2.462,15.957c4.053-1.502,9.701-4.482,10.578-5.015
		c0.877-0.533-0.485-2.553,2.918-2.553c4.72,0,8.988,1.475,10.213,2.006C93.863,45.903,84.162,37.104,73.392,37.104z"/>
	<path fill="#543729" d="M122.837,66.64c-6.119-5.879-36.714-9.549-46.368-10.618c0.468-1.105,0.866-2.247,1.195-3.423
		c1.316-0.576,2.736-1.113,4.206-1.56c0.179,0.528,1.022,2.551,1.502,3.511c19.413,0.536,20.41-14.426,21.199-18.525
		c0.772-4.008,0.733-7.88,7.391-14.96c-9.92-2.891-24.186,4.48-28.965,15.452c-1.796-0.673-3.595-1.17-5.375-1.477
		c-1.275-5.145-7.917-19.481-25.348-19.481c-11.288,0-22.672,4.661-31.232,12.789c-4.612,4.38-8.235,9.58-10.768,15.458
		c-2.736,6.349-4.123,13.34-4.123,20.779c0,25.907,17.687,48.611,27.681,48.611c4.364,0,8.119-3.268,9-6.198
		c0.739,2.009,3.006,8.253,3.75,9.843c1.101,2.351,6.19,4.385,8.417,1.945c2.864,1.591,8.119,2.549,10.983-1.694
		c5.516,1.167,10.392-2.122,10.498-6.047c2.707-0.145,4.034-3.945,3.443-6.97c-0.436-2.228-5.089-10.223-6.905-12.983
		c3.594,2.923,12.696,3.75,13.801,0.002c5.794,4.547,14.823,2.161,15.539-1.538c7.04,1.829,15.115-2.188,13.789-7.054
		C127.458,81.722,126.01,69.689,122.837,66.64L122.837,66.64z M93.386,46.696c-2.979-1.169-6.757-1.909-9.406-1.909
		c-3.756,0-6.043,2.128-9.577,2.128c-0.742,0-2.512,0.004-3.933-0.502c0.934,0.98,2.097,1.511,4.351,1.511
		c1.346,0,4.011-0.687,6.169-1.336c0.03,0.454,0.078,0.906,0.142,1.354c-4.043,0.967-8.286,3.539-9.514,4.207
		c-2.731-6.031-0.383-11.734,1.788-14.367C83.134,37.804,90.99,44.483,93.386,46.696z M97.591,46.241l-1.488-1.389
		c-1.528-1.431-3.12-2.726-4.756-3.875c2.436-4.833,5.497-10.11,9.363-13.375c-4.255,1.715-8.457,6.841-10.941,12.321
		c-1.266-0.805-2.551-1.523-3.848-2.15c3.465-7.396,11.517-13.573,20.391-14.056C100.368,29.108,102.6,39.866,97.591,46.241z
		 M85.382,51.283c-0.655-1.421-1.319-3.78-1.238-5.167c1.104-0.026,3.222,0.388,3.563,0.468c-0.129,0.651-0.199,2.078-0.201,2.263
		c0.21-0.362,0.792-1.608,1.029-2.098c2.121,0.405,4.908,1.082,6.543,1.844C93.158,49.836,89.897,51.188,85.382,51.283z
		 M72.13,34.603c-7.756,7.861-4.693,17.804-1.869,22.299c-4.017,6.682-11.914,11.254-21.088,13.334
		c10.299,0,16.356-2.651,19.88-5.248c2.248-1.657,3.468-3.292,4.091-4.203c15.269,0.988,39.448,5.907,41.806,7.5
		c0.947,0.64,1.923,2.054,2.067,3.408c-11.475-1.606-32.158-3.296-37.574-3.584c3.845,0.545,31.887,5.855,36.748,7.098
		c-1.48,2.413-4.849,4.116-9.929,2.932c2.744,3.739-2.585,8.225-10.007,5.754c1.634,3.671-4.975,6.975-12.486,3.149
		c0.095,3.672-9.318,4.095-13.04,0.038c0.071,0.484,0.513,1.409,0.704,1.814c-1.199,10.723-9.982,17.375-18.977,17.375
		c-22.025,0-41.211-17.888-41.211-41.686c0-25.161,18.594-43.935,41.031-43.935C65.13,20.651,70.937,30.77,72.13,34.603
		L72.13,34.603z"/>
</g>
</svg>
