<?xml version="1.0" encoding="utf-8"?>
<!-- Generator: Adobe Illustrator 17.0.2, SVG Export Plug-In . SVG Version: 6.00 Build 0)  -->
<!DOCTYPE svg PUBLIC "-//W3C//DTD SVG 1.1//EN" "http://www.w3.org/Graphics/SVG/1.1/DTD/svg11.dtd">
<svg version="1.1" id="Calque_1" xmlns="http://www.w3.org/2000/svg" xmlns:xlink="http://www.w3.org/1999/xlink" x="0px" y="0px"
	 width="130px" height="130px" viewBox="0 0 130 130" enable-background="new 0 0 130 130" xml:space="preserve">
<path fill="#F03C2E" d="M119.846,70.077l-49.771,49.77c-2.865,2.867-7.514,2.867-10.383,0L49.359,109.51L62.469,96.4
	c3.047,1.029,6.541,0.338,8.969-2.09c2.442-2.443,3.127-5.968,2.072-9.025L86.145,72.65c3.058,1.054,6.583,0.373,9.026-2.073
	c3.412-3.411,3.412-8.94,0-12.353c-3.414-3.414-8.942-3.414-12.357,0c-2.566,2.568-3.201,6.339-1.9,9.501L69.128,79.509V48.498
	c0.831-0.412,1.616-0.96,2.309-1.651c3.412-3.411,3.412-8.94,0-12.356c-3.412-3.41-8.943-3.41-12.352,0
	c-3.412,3.416-3.412,8.945,0,12.356c0.843,0.842,1.82,1.479,2.861,1.906v31.298c-1.042,0.427-2.016,1.058-2.861,1.906
	c-2.584,2.583-3.206,6.376-1.88,9.55l-12.924,12.926L10.153,70.308c-2.866-2.869-2.866-7.518,0-10.385l49.773-49.77
	c2.865-2.866,7.513-2.866,10.383,0l49.538,49.539C122.714,62.559,122.714,67.211,119.846,70.077"/>
</svg>
