<?xml version="1.0" encoding="UTF-8" standalone="no"?>
<svg width="117px" height="118px" viewBox="0 0 117 118" version="1.1" xmlns="http://www.w3.org/2000/svg" xmlns:xlink="http://www.w3.org/1999/xlink" xmlns:sketch="http://www.bohemiancoding.com/sketch/ns">
    <!-- Generator: Sketch 3.2.2 (9983) - http://www.bohemiancoding.com/sketch -->
    <title>joomla </title>
    <desc>Created with Sketch.</desc>
    <defs>
        <linearGradient x1="100%" y1="1.11022302e-14%" x2="-2.22044605e-14%" y2="100%" id="linearGradient-1">
            <stop stop-color="#56A514" offset="0%"></stop>
            <stop stop-color="#006BAC" offset="100%"></stop>
        </linearGradient>
        <linearGradient x1="0%" y1="0%" x2="100%" y2="100%" id="linearGradient-2">
            <stop stop-color="#FE8E19" offset="0%"></stop>
            <stop stop-color="#D03718" offset="100%"></stop>
        </linearGradient>
    </defs>
    <g id="Page-1" stroke="none" stroke-width="1" fill="none" fill-rule="evenodd" sketch:type="MSPage">
        <g id="joomla-" sketch:type="MSLayerGroup" transform="translate(58.500000, 58.792893) rotate(-45.000000) translate(-58.500000, -58.792893) translate(-17.500000, -17.207107)">
            <path d="M51.2246631,102.814147 C39.0228916,102.814147 30.8131102,96.5296351 26.7966875,88.2483987 C24.0469638,90.4395304 20.5635478,91.7490186 16.7742845,91.7490186 C7.88540945,91.7490186 0.679552488,84.5431616 0.679552488,75.6542866 C0.679552488,66.7654116 7.88540945,59.5595546 16.7742845,59.5595546 C20.5661135,59.5595546 24.0516808,60.8708167 26.8022719,63.0646265 C30.7191531,55.1640136 38.6756285,49.1535057 50.8498431,48.8263864 L67.0976567,48.7459065 C71.0399712,48.657208 80.1433028,48.5495349 101.108558,48.5495349 C113.266591,48.5495349 121.461202,54.7890726 125.493181,63.0263055 C128.236233,60.8555555 131.703234,59.5595546 135.472933,59.5595546 C144.361808,59.5595546 151.567665,66.7654116 151.567665,75.6542866 C151.567665,84.5431616 144.361808,91.7490186 135.472933,91.7490186 C131.718394,91.7490186 128.264122,90.46342 125.526308,88.3084132 C121.571676,96.2771742 113.505835,102.320831 101.145887,102.544885 L87.1774464,102.562667 C84.7637156,102.653092 76.8655945,102.814147 51.2246631,102.814147 Z M71.4712253,85.7333575 C65.0145603,85.7333576 57.7103772,85.7333578 51.523296,85.7333578 C36.7055516,85.7333578 36.5982049,66.1860566 50.8498499,65.5889997 L50.8498499,65.5950791 L64.1070799,65.5950791 L64.1070799,65.6303249 C64.1070799,65.6303249 85.7623726,65.630324 100.809925,65.630324 C115.743717,65.630324 115.735796,85.4849998 101.145887,85.7852045 L101.145887,85.7134941 L71.4712253,85.7134941 L71.4712253,85.7333575 L71.4712253,85.7333575 L71.4712253,85.7333575 Z" id="Oval-13" fill="url(#linearGradient-1)" sketch:type="MSShapeGroup"></path>
            <path d="M48.4567203,86.2778771 C48.4567203,89.9644898 48.5328853,99.1741875 48.5806492,102.325395 C48.590905,103.002022 48.6560748,103.427647 48.6560748,103.427647 C48.6560748,103.427647 63.1800073,103.460832 65.5089005,103.460832 C65.3848488,102.34805 65.3199526,102.543568 65.3199526,101.731292 C65.3199526,97.4460594 65.3848488,86.4327806 65.3848488,86.4327806 C65.3848488,86.4327806 49.1858041,86.6414981 48.4567203,86.2778771 Z M102.303964,66.4671508 C102.303964,62.7805381 102.227799,53.5708404 102.180035,50.4196327 C102.169779,49.7430061 102.104609,49.3173808 102.104609,49.3173808 C102.104609,49.3173808 87.5806768,49.284196 85.2517836,49.284196 C85.3758353,50.3969774 85.4407314,50.2014602 85.4407314,51.0137363 C85.4407314,55.2989685 85.3758353,66.3122474 85.3758353,66.3122474 C85.3758353,66.3122474 101.57488,66.1035299 102.303964,66.4671508 Z M102.548808,101.287893 C102.548808,113.489665 96.2642961,121.699446 87.9830598,125.715869 C90.1741914,128.465593 91.4836797,131.949009 91.4836797,135.738272 C91.4836797,144.627147 84.2778227,151.833004 75.3889477,151.833004 C66.5000726,151.833004 59.2942157,144.627147 59.2942157,135.738272 C59.2942157,131.946443 60.6054778,128.460876 62.7992876,125.710285 C54.8986747,121.793403 48.8881667,113.836928 48.5610475,101.662713 L48.4805676,85.4148998 C48.3918691,81.4725852 48.284196,72.3692537 48.284196,51.4039981 C48.284196,39.2459651 54.5237336,31.051354 62.7609666,27.0193759 C60.5902166,24.2763236 59.2942157,20.8093221 59.2942157,17.0396234 C59.2942157,8.15074838 66.5000726,0.944891413 75.3889477,0.944891413 C84.2778227,0.944891413 91.4836797,8.15074838 91.4836797,17.0396234 C91.4836797,20.7941629 90.1980811,24.2484347 88.0430743,26.9862486 C96.0118353,30.9408806 102.055492,39.0067212 102.279546,51.366669 L102.297328,65.33511 C102.387753,67.7488408 102.548808,75.646962 102.548808,101.287893 Z M85.4680185,81.0413311 C85.4680187,87.4979962 85.4680189,94.8021793 85.4680189,100.98926 C85.4680189,115.807005 65.9207177,115.914352 65.3236608,101.662707 L65.3297402,101.662707 L65.3297402,88.4054766 L65.364986,88.4054766 C65.364986,88.4054766 65.3649851,66.7501838 65.3649851,51.702631 C65.3649851,36.768839 85.2196609,36.7767607 85.5198655,51.366669 L85.4481552,51.366669 L85.4481552,81.0413311 L85.4680185,81.0413311 L85.4680185,81.0413311 L85.4680185,81.0413311 Z" id="Oval-14" fill="url(#linearGradient-2)" sketch:type="MSShapeGroup"></path>
        </g>
    </g>
</svg>