<?xml version="1.0" encoding="utf-8"?>
<!-- Generator: Adobe Illustrator 17.0.2, SVG Export Plug-In . SVG Version: 6.00 Build 0)  -->
<!DOCTYPE svg PUBLIC "-//W3C//DTD SVG 1.1//EN" "http://www.w3.org/Graphics/SVG/1.1/DTD/svg11.dtd">
<svg version="1.1" id="Calque_1" xmlns="http://www.w3.org/2000/svg" xmlns:xlink="http://www.w3.org/1999/xlink" x="0px" y="0px"
	 width="130px" height="130px" viewBox="0 0 130 130" enable-background="new 0 0 130 130" xml:space="preserve">
<g>
	<path fill="#010202" d="M66.646,125.405c-28.355,0-51.423-23.268-51.423-51.869c0-28.599,23.068-51.866,51.423-51.866
		s51.423,23.267,51.423,51.866C118.069,102.137,95.001,125.405,66.646,125.405z M66.646,24.262
		c-26.925,0-48.831,22.104-48.831,49.274c0,27.171,21.906,49.276,48.831,49.276c26.926,0,48.831-22.105,48.831-49.276
		C115.477,46.366,93.572,24.262,66.646,24.262z"/>
	<g>
		<g>
			<defs>
				<path id="SVGID_3_" d="M94.707,31.628v-0.133l2.926-14.625c0,0-6.5-14.951-28.276-13.163
					c-21.775,1.787-24.537,6.825-28.113,12.838l2.112,9.587l-4.063,2.601c0,0-1.462-4.388-3.738-4.55c0,0,3.412-4.875,0.975-8.287
					s-15.438-3.088-20.476,14.138c0,0-0.649-5.2-2.762-5.2c-2.112,0-9.912,2.763-7.8,10.888s9.425,10.562,11.863,11.538
					c0,0,1.137,1.462,0.65,3.412c-0.256,1.024-6.152,19.252-1.227,36.101c3.678,12.583,15.436,23.515,15.436,23.515
					c8.981,8.566,21.097,13.821,34.432,13.821c27.683,0,50.127-22.641,50.127-50.572C116.773,56.098,108.022,40.719,94.707,31.628z"
					/>
			</defs>
			<clipPath id="SVGID_1_">
				<use xlink:href="#SVGID_3_"  overflow="visible"/>
			</clipPath>
			<g clip-path="url(#SVGID_1_)">
				<path fill="#040505" d="M84.325,91.97c0,0,36.433,5.866,40.447,56.81c0,0-6.793,4.323-13.894,4.632
					C110.877,153.412,111.495,114.201,84.325,91.97L84.325,91.97z"/>
				<path fill="#DC0A2C" d="M105.629,123.834c0.285,0.824,0.553,1.643,0.809,2.454c2.394-0.243,7.759-1.001,12.512-3.153
					c-0.332-0.797-0.675-1.569-1.025-2.326C116.177,121.614,112.302,123.045,105.629,123.834L105.629,123.834z"/>
				<g>
					<g>
						<circle fill="#F4CF8B" cx="46.742" cy="53.388" r="7.814"/>
						<circle fill="#F4CF8B" cx="46.742" cy="53.388" r="7.814"/>
						<path fill="#F4CF8B" d="M38.928,53.388c0,0.24,0.012,0.477,0.034,0.711c0.557-0.236,1.15-0.544,1.783-0.949
							c3.703-2.365,3.813-5.187,2.985-6.974C40.91,47.354,38.928,50.139,38.928,53.388z"/>
						<circle fill="#F4CF8B" cx="42.705" cy="53.388" r="3.777"/>
						<g>
							<path fill="#D7AE6F" d="M42.705,49.611c-0.154,0-0.304,0.011-0.452,0.03c1.472,0.224,2.614,1.815,2.614,3.748
								s-1.142,3.524-2.614,3.748c0.148,0.018,0.298,0.03,0.452,0.03c2.085,0,3.777-1.691,3.777-3.777S44.791,49.611,42.705,49.611z
								"/>
							<path fill="#F4CF8B" d="M42.253,49.64c-0.117-0.018-0.235-0.03-0.356-0.03c-1.64,0-2.97,1.691-2.97,3.777
								C38.928,51.454,40.381,49.864,42.253,49.64z"/>
							<path fill="#F4CF8B" d="M38.928,53.388c0,2.086,1.329,3.777,2.97,3.777c0.12,0,0.238-0.011,0.356-0.03
								C40.381,56.912,38.928,55.32,38.928,53.388z"/>
						</g>
					</g>
					<g>
						<circle fill="#F4CF8B" cx="92.473" cy="53.388" r="7.815"/>
						<circle fill="#F4CF8B" cx="92.473" cy="53.388" r="7.815"/>
						<circle fill="#F4CF8B" cx="96.51" cy="53.388" r="3.777"/>
						<g>
							<path fill="#D7AE6F" d="M94.348,53.388c0-1.933,1.141-3.524,2.614-3.748c-0.148-0.018-0.299-0.03-0.452-0.03
								c-2.087,0-3.777,1.691-3.777,3.777c0,2.086,1.69,3.777,3.777,3.777c0.153,0,0.304-0.011,0.452-0.03
								C95.49,56.912,94.348,55.32,94.348,53.388z"/>
							<path fill="#F4CF8B" d="M100.288,53.388c0-2.086-1.33-3.777-2.97-3.777c-0.121,0-0.24,0.011-0.357,0.03
								C98.835,49.864,100.288,51.454,100.288,53.388L100.288,53.388z"/>
							<path fill="#F4CF8B" d="M96.962,57.135c0.117,0.018,0.235,0.03,0.357,0.03c1.639,0,2.97-1.691,2.97-3.777
								C100.288,55.32,98.835,56.912,96.962,57.135z"/>
						</g>
					</g>
				</g>
				<g>
					<path fill="#F4CF8B" d="M24.913,58.38c0,0,7.453,0.973,6.481-6.48c0,0,2.592,4.05,8.425,0.324
						c5.833-3.726,2.754-8.587,1.134-8.748c-1.62-0.162-3.888-1.945-9.559,3.888l-3.24-7.452l3.727-4.861
						c0,0,0.512,7.021,5.927,5.049c5.414-1.971,1.364-13.96-3.496-13.96s-8.749,5.022-8.749,5.022s1.62-4.535,8.749-8.262
						c0,0,2.754-1.62,1.134-5.671c-1.62-4.051-17.011-1.134-19.442,18.632c0,0-2.754-2.592-2.106-6.642s-7.94-2.916-6.319,5.833
						c1.62,8.749,10.046,10.53,10.046,10.53s2.86,4.628,0.81,9.883C18.432,55.464,21.673,59.514,24.913,58.38z"/>
					<g>
						<path fill="#F4CF8B" d="M39.819,52.223c5.833-3.726,2.754-8.587,1.134-8.748c-0.996-0.1-2.239-0.81-4.364,0.012l1.909,3.932
							c0,0-0.392,5.625-6.67,4.185c0,0-0.066,0.221-0.23,0.558C32.308,52.998,34.92,55.353,39.819,52.223z"/>
						<path fill="#F4CF8B" d="M31.448,52.448c-0.971,1.741-4.337,5.087-12.427,0.917c-0.154,0.729-0.3,1.377-0.589,2.099
							c0,0,3.24,4.051,6.481,2.916C24.913,58.38,31.988,59.3,31.448,52.448z"/>
					</g>
					<path fill="#F4CF8B" d="M31.88,35.05c0,0,0.512,7.021,5.927,5.049c2.214-0.806,2.845-3.287,2.485-5.939
						c-1.351,1.398-5.523,4.947-7.157-2.568l-7.456,8.633l-5.887,3.401l7.325-1.831l4.276,5.568l-3.24-7.452L31.88,35.05z"/>
					<path fill="#F4CF8B" d="M26.781,29.055c1.206-1.66,3.478-4.039,7.529-6.156c0,0,2.754-1.62,1.134-5.671
						c-0.028-0.07-0.061-0.137-0.096-0.202c-0.385,1.225-1.135,2.686-2.605,3.708c-3.009,2.093-13.735,9.548-10.334,20.798
						C22.409,41.533,21.033,34.573,26.781,29.055z"/>
					<path fill="#F4CF8B" d="M15.849,35.701c-0.569-0.617-2.508-3.015-1.953-6.484c0.256-1.6-0.931-2.387-2.358-2.219
						c-0.254,4.356,0.346,13.182,8.909,15.712C20.447,42.71,17.203,41.169,15.849,35.701z"/>
				</g>
				<path fill="#040505" d="M18.432,55.464l6.481,2.916c0,0-5.833,32.079,24.626,33.375c0,0,0.215,20.633-18.579,20.31
					C30.96,112.065,6.121,92.334,18.432,55.464L18.432,55.464z"/>
				<path fill="#DC0A2C" d="M26.196,75.831c-0.099-0.293-0.192-0.588-0.282-0.883l-0.005-0.017
					c-1.44,0.746-5.313,2.421-10.866,2.366c0.025,0.716,0.067,1.418,0.12,2.113c2.789,0.008,7.39-0.369,11.404-2.534l-0.008-0.022
					c-0.116-0.303-0.223-0.607-0.327-0.911L26.196,75.831z"/>
				<path fill="#DC0A2C" d="M28.249,80.427c-0.153-0.266-0.3-0.535-0.442-0.805l-0.002-0.003c-1.659,0.786-6.282,2.666-12.343,2.671
					c0.106,0.797,0.23,1.579,0.369,2.345c3.297,0.003,8.174-0.582,12.941-3.342l-0.013-0.022c-0.167-0.262-0.327-0.528-0.481-0.795
					L28.249,80.427L28.249,80.427z"/>
				<path fill="#DC0A2C" d="M18.432,55.464c-1.76,4.821-2.501,9.243-3.084,13.392c3.081,0.594,6.191,0.65,9.234-1.316
					c-0.388-5.195,0.331-9.159,0.331-9.159L18.432,55.464z"/>
				<path fill="#040505" d="M87.882,90.941H51.334c-38.903,17.084-29.846,81.511-29.846,81.511h48.371V142.99l2.676,29.462h45.192
					C117.727,172.451,126.784,108.025,87.882,90.941z"/>
				<path fill="#921827" d="M120.661,150.903c-0.547-13.84-3.326-31.653-12.651-44.985C96.841,93.99,84.325,91.97,84.325,91.97
					c27.17,22.231,26.553,61.442,26.553,61.442C114.509,153.254,118.058,152.046,120.661,150.903z"/>
				<path fill="#DC0A2C" d="M23.062,131.083c-0.126,0.593-0.247,1.186-0.361,1.777c10.751-3.959,27.761-6.517,46.907-6.517
					c19.147,0,36.156,2.558,46.907,6.517c-0.115-0.592-0.235-1.185-0.361-1.777c-10.768-3.885-27.612-6.386-46.546-6.386
					S33.83,127.198,23.062,131.083z"/>
				<path fill="#DC0A2C" d="M25.192,122.947c-0.168,0.532-0.331,1.067-0.487,1.601c10.797-3.559,26.906-5.82,44.904-5.82
					s34.106,2.26,44.903,5.82c-0.156-0.533-0.319-1.069-0.487-1.601c-10.792-3.468-26.689-5.66-44.416-5.66
					C51.88,117.287,35.984,119.479,25.192,122.947L25.192,122.947z"/>
				<path fill="#DC0A2C" d="M40.313,98.013c-8.33,10.739-7.433,23.802-7.433,23.802l2.265-1.029
					c-0.712-11.396,4.489-20.423,7.761-24.905C42.008,96.563,41.143,97.274,40.313,98.013z"/>
				<path fill="#DC0A2C" d="M96.31,95.882c3.272,4.482,8.474,13.509,7.762,24.905l2.264,1.029c0,0,0.898-13.063-7.432-23.801
					C98.073,97.274,97.209,96.563,96.31,95.882L96.31,95.882z"/>
				<path fill="#F4CF8B" d="M89.821,89.598c0,0-7.768,7.078-20.543,7.078c-15.192,0-19.883-7.078-19.883-7.078l-2.689-49.499h45.805
					L89.821,89.598L89.821,89.598z"/>
				<path fill="#F4CF8B" d="M89.821,89.598c0,0-7.768,7.078-20.543,7.078c-15.192,0-19.883-7.078-19.883-7.078l-2.689-49.499h45.805
					L89.821,89.598L89.821,89.598z"/>
				<path fill="#F4CF8B" d="M89.821,89.598c0,0-7.768,7.078-20.543,7.078c-15.192,0-19.883-7.078-19.883-7.078l-2.689-49.499h45.805
					L89.821,89.598L89.821,89.598z"/>
				<path fill="#B27D2E" d="M75.423,48.538l1.132-1.44c0,0,4.117-0.206,10.446,3.19c0,0-4.581-5.66-11.476-3.757l0.206-1.235
					l-1.955,3.191c0,0,0.72,4.27-0.051,7.358h-8.234c-0.772-3.088-0.052-7.358-0.052-7.358l-1.955-3.191l0.205,1.235
					c-6.895-1.904-11.475,3.757-11.475,3.757c6.329-3.396,10.446-3.19,10.446-3.19l1.132,1.44c-2.213,4.426-7.41,4.785-7.41,4.785
					c5.455,0.567,7.462-2.83,7.462-2.83c-0.309,2.676,0.257,6.199,0.257,6.199l5.48,3.861l0.026-0.026l0.026,0.026l5.48-3.861
					c0,0,0.566-3.523,0.257-6.199c0,0,2.007,3.396,7.462,2.83C82.833,53.324,77.635,52.964,75.423,48.538L75.423,48.538z"/>
				<ellipse fill="#040505" cx="69.608" cy="64.568" rx="7.513" ry="4.503"/>
				<path fill="#DC0A2C" d="M69.608,69.296c1.7,0,3.268-0.564,4.527-1.135c-0.882-0.954-2.579-1.601-4.527-1.601
					c-1.949,0-3.645,0.647-4.527,1.601C66.34,68.732,67.908,69.296,69.608,69.296z"/>
				<path fill="#FFFFFF" d="M69.608,60.065c-4.149,0-7.513,2.016-7.513,4.503c0,0.13,0.011,0.258,0.03,0.386h14.967
					c0.018-0.128,0.03-0.256,0.03-0.386C77.121,62.081,73.757,60.065,69.608,60.065z"/>
				<path fill="#C88B28" d="M69.608,72.003c-1.524,0-2.943-0.272-4.127-0.74c0.949,1.23,2.442,2.027,4.127,2.027
					c1.684,0,3.178-0.797,4.127-2.027C72.551,71.731,71.132,72.003,69.608,72.003z"/>
				<path fill="#C88B28" d="M69.608,85.397c-2.605,0-5.027-0.467-7.05-1.267c1.623,2.102,4.173,3.462,7.05,3.462
					c2.877,0,5.427-1.36,7.05-3.462C74.634,84.93,72.212,85.397,69.608,85.397z"/>
				<polygon fill="#CD9E61" points="92.068,48.229 92.511,40.099 46.705,40.099 47.147,48.229 				"/>
				<path fill="#040505" d="M92.611,40.099l4.019-23.231c0,0-6.06-11.895-26.888-11.895c-25.318,0-27.155,11.895-27.155,11.895
					l4.019,23.231H92.611z"/>
				<polygon fill="#DC0A2C" points="46.605,40.099 92.612,40.099 94.334,30.136 44.881,30.136 				"/>
				<polygon fill="#040505" points="39.658,45.657 37.807,40.099 101.409,40.099 99.557,45.657 				"/>
				<g>
					<circle fill="#040505" cx="69.608" cy="33.321" r="7.407"/>
					<path fill="#DC0A2C" d="M69.608,39.821c-3.585,0-6.501-2.916-6.501-6.498c0-3.586,2.916-6.502,6.501-6.502
						c3.585,0,6.501,2.916,6.501,6.502C76.109,36.906,73.193,39.821,69.608,39.821z M69.608,27.67c-3.116,0-5.652,2.536-5.652,5.652
						c0,3.115,2.536,5.649,5.652,5.649c3.116,0,5.652-2.534,5.652-5.649C75.26,30.206,72.724,27.67,69.608,27.67z"/>
					<path fill="#DC0A2C" d="M69.608,38.013c-2.588,0-4.694-2.104-4.694-4.691c0-2.588,2.106-4.694,4.694-4.694
						c2.588,0,4.694,2.106,4.694,4.694C74.301,35.909,72.195,38.013,69.608,38.013z M69.608,29.242c-2.25,0-4.08,1.83-4.08,4.08
						c0,2.249,1.831,4.078,4.08,4.078c2.25,0,4.08-1.829,4.08-4.078C73.688,31.072,71.857,29.242,69.608,29.242z"/>
					<polygon fill="#DC0A2C" points="72.917,30.134 71.298,32.21 73.845,31.544 71.584,32.894 74.2,33.194 71.604,33.638 
						73.936,34.861 71.355,34.337 73.087,36.32 70.871,34.899 71.769,37.374 70.215,35.248 70.158,37.88 69.478,35.336 
						68.474,37.771 68.759,35.153 66.943,37.06 68.153,34.722 65.771,35.845 67.746,34.102 65.12,34.288 67.589,33.376 
						65.073,32.601 67.706,32.642 65.639,31.011 68.079,32.002 66.741,29.733 68.66,31.537 68.231,28.94 69.367,31.315 
						69.907,28.737 70.109,31.362 71.542,29.155 70.782,31.675 					"/>
					<path fill="#040505" d="M71.01,33.322c0,0.772-0.628,1.401-1.403,1.401c-0.774,0-1.402-0.629-1.402-1.401
						c0-0.776,0.628-1.403,1.402-1.403C70.382,31.919,71.01,32.546,71.01,33.322z"/>
				</g>
				<path fill="#DC0A2C" d="M69.278,96.676c-15.184,0-19.878-7.071-19.883-7.078l0.546,10.048c0,0,4.564,6.887,19.346,6.887
					c12.429,0,19.987-6.887,19.987-6.887l0.546-10.048C89.812,89.606,82.045,96.676,69.278,96.676z"/>
				<path fill="#040505" d="M69.607,106.404c0.37-1.307,0.594-2.988,0.594-4.824s-0.224-3.518-0.594-4.824
					c-0.369,1.307-0.593,2.988-0.593,4.824C69.014,103.415,69.238,105.097,69.607,106.404L69.607,106.404z"/>
				<circle fill="#921827" cx="73.204" cy="101.888" r="1.389"/>
				<circle fill="#FFFFFF" cx="72.895" cy="101.579" r="1.389"/>
				<path fill="#F8AE13" d="M74.524,115.416h-9.833c-1.561,0-2.83,1.27-2.83,2.83v6.996c0,1.561,1.269,2.83,2.83,2.83h9.833
					c1.561,0,2.829-1.27,2.829-2.83v-6.996C77.354,116.687,76.085,115.416,74.524,115.416z M73.759,119.344v4.803
					c0,0.287-0.233,0.519-0.518,0.519h-7.264c-0.287,0-0.519-0.233-0.519-0.519v-4.803c0-0.287,0.232-0.519,0.519-0.519h7.264
					C73.525,118.824,73.759,119.057,73.759,119.344z"/>
				<polygon fill="#C88B28" points="69.582,60.554 69.608,60.528 69.634,60.554 75.07,56.724 64.145,56.724 				"/>
				<g>
					<path fill="#4D1C0F" d="M69.607,59.705c0,0-4.58-5.455-15.335-2.778c-10.755,2.675-16.26,16.003-16.26,16.003
						s5.866,4.375,15.025,3.191C62.197,74.938,69.659,65.16,69.607,59.705z"/>
					<path fill="#4D1C0F" d="M69.608,59.705c0,0,4.579-5.455,15.334-2.778c10.755,2.675,16.261,16.003,16.261,16.003
						s-5.866,4.375-15.026,3.191C77.018,74.938,69.557,65.16,69.608,59.705z"/>
				</g>
				<polygon fill="#DC0A2C" points="92.846,106.481 91.177,108.551 89.491,106.481 90.448,106.481 90.448,105.547 86.849,105.547 
					86.849,106.481 88.275,106.481 90.678,109.436 90.678,111.282 89.282,111.282 89.282,112.22 93.068,112.22 93.068,111.282 
					91.671,111.282 91.671,109.436 94.074,106.481 95.495,106.481 95.495,105.547 91.897,105.547 91.897,106.481 				"/>
			</g>
		</g>
	</g>
</g>
</svg>
